G04 #@! TF.GenerationSoftware,KiCad,Pcbnew,(5.1.5)-3*
G04 #@! TF.CreationDate,2020-04-05T07:59:10+02:00*
G04 #@! TF.ProjectId,BuzzDuino,42757a7a-4475-4696-9e6f-2e6b69636164,rev?*
G04 #@! TF.SameCoordinates,Original*
G04 #@! TF.FileFunction,Soldermask,Top*
G04 #@! TF.FilePolarity,Negative*
%FSLAX46Y46*%
G04 Gerber Fmt 4.6, Leading zero omitted, Abs format (unit mm)*
G04 Created by KiCad (PCBNEW (5.1.5)-3) date 2020-04-05 07:59:10*
%MOMM*%
%LPD*%
G04 APERTURE LIST*
%ADD10C,0.100000*%
G04 APERTURE END LIST*
D10*
G36*
X169378412Y-119565134D02*
G01*
X169610346Y-119611269D01*
X170047300Y-119792262D01*
X170440548Y-120055022D01*
X170774978Y-120389452D01*
X171037738Y-120782700D01*
X171218731Y-121219654D01*
X171311000Y-121683522D01*
X171311000Y-122156478D01*
X171218731Y-122620346D01*
X171037738Y-123057300D01*
X170774978Y-123450548D01*
X170440548Y-123784978D01*
X170047300Y-124047738D01*
X169610346Y-124228731D01*
X169378412Y-124274865D01*
X169146479Y-124321000D01*
X168673521Y-124321000D01*
X168441588Y-124274865D01*
X168209654Y-124228731D01*
X167772700Y-124047738D01*
X167379452Y-123784978D01*
X167045022Y-123450548D01*
X166782262Y-123057300D01*
X166601269Y-122620346D01*
X166509000Y-122156478D01*
X166509000Y-121683522D01*
X166601269Y-121219654D01*
X166782262Y-120782700D01*
X167045022Y-120389452D01*
X167379452Y-120055022D01*
X167772700Y-119792262D01*
X168209654Y-119611269D01*
X168441588Y-119565134D01*
X168673521Y-119519000D01*
X169146479Y-119519000D01*
X169378412Y-119565134D01*
G37*
G36*
X100798412Y-119565134D02*
G01*
X101030346Y-119611269D01*
X101467300Y-119792262D01*
X101860548Y-120055022D01*
X102194978Y-120389452D01*
X102457738Y-120782700D01*
X102638731Y-121219654D01*
X102731000Y-121683522D01*
X102731000Y-122156478D01*
X102638731Y-122620346D01*
X102457738Y-123057300D01*
X102194978Y-123450548D01*
X101860548Y-123784978D01*
X101467300Y-124047738D01*
X101030346Y-124228731D01*
X100798412Y-124274865D01*
X100566479Y-124321000D01*
X100093521Y-124321000D01*
X99861588Y-124274865D01*
X99629654Y-124228731D01*
X99192700Y-124047738D01*
X98799452Y-123784978D01*
X98465022Y-123450548D01*
X98202262Y-123057300D01*
X98021269Y-122620346D01*
X97929000Y-122156478D01*
X97929000Y-121683522D01*
X98021269Y-121219654D01*
X98202262Y-120782700D01*
X98465022Y-120389452D01*
X98799452Y-120055022D01*
X99192700Y-119792262D01*
X99629654Y-119611269D01*
X99861588Y-119565134D01*
X100093521Y-119519000D01*
X100566479Y-119519000D01*
X100798412Y-119565134D01*
G37*
G36*
X141218228Y-119831703D02*
G01*
X141373100Y-119895853D01*
X141512481Y-119988985D01*
X141631015Y-120107519D01*
X141724147Y-120246900D01*
X141788297Y-120401772D01*
X141821000Y-120566184D01*
X141821000Y-120733816D01*
X141788297Y-120898228D01*
X141724147Y-121053100D01*
X141631015Y-121192481D01*
X141512481Y-121311015D01*
X141373100Y-121404147D01*
X141218228Y-121468297D01*
X141053816Y-121501000D01*
X140886184Y-121501000D01*
X140721772Y-121468297D01*
X140566900Y-121404147D01*
X140427519Y-121311015D01*
X140308985Y-121192481D01*
X140215853Y-121053100D01*
X140151703Y-120898228D01*
X140119000Y-120733816D01*
X140119000Y-120566184D01*
X140151703Y-120401772D01*
X140215853Y-120246900D01*
X140308985Y-120107519D01*
X140427519Y-119988985D01*
X140566900Y-119895853D01*
X140721772Y-119831703D01*
X140886184Y-119799000D01*
X141053816Y-119799000D01*
X141218228Y-119831703D01*
G37*
G36*
X146298228Y-119831703D02*
G01*
X146453100Y-119895853D01*
X146592481Y-119988985D01*
X146711015Y-120107519D01*
X146804147Y-120246900D01*
X146868297Y-120401772D01*
X146901000Y-120566184D01*
X146901000Y-120733816D01*
X146868297Y-120898228D01*
X146804147Y-121053100D01*
X146711015Y-121192481D01*
X146592481Y-121311015D01*
X146453100Y-121404147D01*
X146298228Y-121468297D01*
X146133816Y-121501000D01*
X145966184Y-121501000D01*
X145801772Y-121468297D01*
X145646900Y-121404147D01*
X145507519Y-121311015D01*
X145388985Y-121192481D01*
X145295853Y-121053100D01*
X145231703Y-120898228D01*
X145199000Y-120733816D01*
X145199000Y-120566184D01*
X145231703Y-120401772D01*
X145295853Y-120246900D01*
X145388985Y-120107519D01*
X145507519Y-119988985D01*
X145646900Y-119895853D01*
X145801772Y-119831703D01*
X145966184Y-119799000D01*
X146133816Y-119799000D01*
X146298228Y-119831703D01*
G37*
G36*
X132357395Y-118465546D02*
G01*
X132530466Y-118537234D01*
X132530467Y-118537235D01*
X132686227Y-118641310D01*
X132818690Y-118773773D01*
X132861284Y-118837520D01*
X132922766Y-118929534D01*
X132994454Y-119102605D01*
X133031000Y-119286333D01*
X133031000Y-119473667D01*
X132994454Y-119657395D01*
X132922766Y-119830466D01*
X132922765Y-119830467D01*
X132818690Y-119986227D01*
X132686227Y-120118690D01*
X132663092Y-120134148D01*
X132530466Y-120222766D01*
X132357395Y-120294454D01*
X132173667Y-120331000D01*
X131986333Y-120331000D01*
X131802605Y-120294454D01*
X131629534Y-120222766D01*
X131496908Y-120134148D01*
X131473773Y-120118690D01*
X131341310Y-119986227D01*
X131237235Y-119830467D01*
X131237234Y-119830466D01*
X131165546Y-119657395D01*
X131129000Y-119473667D01*
X131129000Y-119286333D01*
X131165546Y-119102605D01*
X131237234Y-118929534D01*
X131298716Y-118837520D01*
X131341310Y-118773773D01*
X131473773Y-118641310D01*
X131629533Y-118537235D01*
X131629534Y-118537234D01*
X131802605Y-118465546D01*
X131986333Y-118429000D01*
X132173667Y-118429000D01*
X132357395Y-118465546D01*
G37*
G36*
X135571000Y-120331000D02*
G01*
X133669000Y-120331000D01*
X133669000Y-118429000D01*
X135571000Y-118429000D01*
X135571000Y-120331000D01*
G37*
G36*
X128518228Y-118561703D02*
G01*
X128673100Y-118625853D01*
X128812481Y-118718985D01*
X128931015Y-118837519D01*
X129024147Y-118976900D01*
X129088297Y-119131772D01*
X129121000Y-119296184D01*
X129121000Y-119463816D01*
X129088297Y-119628228D01*
X129024147Y-119783100D01*
X128931015Y-119922481D01*
X128812481Y-120041015D01*
X128673100Y-120134147D01*
X128518228Y-120198297D01*
X128353816Y-120231000D01*
X128186184Y-120231000D01*
X128021772Y-120198297D01*
X127866900Y-120134147D01*
X127727519Y-120041015D01*
X127608985Y-119922481D01*
X127515853Y-119783100D01*
X127451703Y-119628228D01*
X127419000Y-119463816D01*
X127419000Y-119296184D01*
X127451703Y-119131772D01*
X127515853Y-118976900D01*
X127608985Y-118837519D01*
X127727519Y-118718985D01*
X127866900Y-118625853D01*
X128021772Y-118561703D01*
X128186184Y-118529000D01*
X128353816Y-118529000D01*
X128518228Y-118561703D01*
G37*
G36*
X157786564Y-117079389D02*
G01*
X157977833Y-117158615D01*
X157977835Y-117158616D01*
X158149973Y-117273635D01*
X158296365Y-117420027D01*
X158394917Y-117567520D01*
X158411385Y-117592167D01*
X158490611Y-117783436D01*
X158531000Y-117986484D01*
X158531000Y-118193516D01*
X158490611Y-118396564D01*
X158411385Y-118587833D01*
X158411384Y-118587835D01*
X158296365Y-118759973D01*
X158149973Y-118906365D01*
X157977835Y-119021384D01*
X157977834Y-119021385D01*
X157977833Y-119021385D01*
X157786564Y-119100611D01*
X157583516Y-119141000D01*
X157376484Y-119141000D01*
X157173436Y-119100611D01*
X156982167Y-119021385D01*
X156982166Y-119021385D01*
X156982165Y-119021384D01*
X156810027Y-118906365D01*
X156663635Y-118759973D01*
X156548616Y-118587835D01*
X156548615Y-118587833D01*
X156469389Y-118396564D01*
X156429000Y-118193516D01*
X156429000Y-117986484D01*
X156469389Y-117783436D01*
X156548615Y-117592167D01*
X156565084Y-117567520D01*
X156663635Y-117420027D01*
X156810027Y-117273635D01*
X156982165Y-117158616D01*
X156982167Y-117158615D01*
X157173436Y-117079389D01*
X157376484Y-117039000D01*
X157583516Y-117039000D01*
X157786564Y-117079389D01*
G37*
G36*
X141218228Y-117291703D02*
G01*
X141373100Y-117355853D01*
X141512481Y-117448985D01*
X141631015Y-117567519D01*
X141724147Y-117706900D01*
X141788297Y-117861772D01*
X141821000Y-118026184D01*
X141821000Y-118193816D01*
X141788297Y-118358228D01*
X141724147Y-118513100D01*
X141631015Y-118652481D01*
X141512481Y-118771015D01*
X141373100Y-118864147D01*
X141218228Y-118928297D01*
X141053816Y-118961000D01*
X140886184Y-118961000D01*
X140721772Y-118928297D01*
X140566900Y-118864147D01*
X140427519Y-118771015D01*
X140308985Y-118652481D01*
X140215853Y-118513100D01*
X140151703Y-118358228D01*
X140119000Y-118193816D01*
X140119000Y-118026184D01*
X140151703Y-117861772D01*
X140215853Y-117706900D01*
X140308985Y-117567519D01*
X140427519Y-117448985D01*
X140566900Y-117355853D01*
X140721772Y-117291703D01*
X140886184Y-117259000D01*
X141053816Y-117259000D01*
X141218228Y-117291703D01*
G37*
G36*
X146298228Y-117291703D02*
G01*
X146453100Y-117355853D01*
X146592481Y-117448985D01*
X146711015Y-117567519D01*
X146804147Y-117706900D01*
X146868297Y-117861772D01*
X146901000Y-118026184D01*
X146901000Y-118193816D01*
X146868297Y-118358228D01*
X146804147Y-118513100D01*
X146711015Y-118652481D01*
X146592481Y-118771015D01*
X146453100Y-118864147D01*
X146298228Y-118928297D01*
X146133816Y-118961000D01*
X145966184Y-118961000D01*
X145801772Y-118928297D01*
X145646900Y-118864147D01*
X145507519Y-118771015D01*
X145388985Y-118652481D01*
X145295853Y-118513100D01*
X145231703Y-118358228D01*
X145199000Y-118193816D01*
X145199000Y-118026184D01*
X145231703Y-117861772D01*
X145295853Y-117706900D01*
X145388985Y-117567519D01*
X145507519Y-117448985D01*
X145646900Y-117355853D01*
X145801772Y-117291703D01*
X145966184Y-117259000D01*
X146133816Y-117259000D01*
X146298228Y-117291703D01*
G37*
G36*
X101848228Y-114751703D02*
G01*
X102003100Y-114815853D01*
X102142481Y-114908985D01*
X102261015Y-115027519D01*
X102354147Y-115166900D01*
X102418297Y-115321772D01*
X102451000Y-115486184D01*
X102451000Y-115653816D01*
X102418297Y-115818228D01*
X102354147Y-115973100D01*
X102261015Y-116112481D01*
X102142481Y-116231015D01*
X102003100Y-116324147D01*
X101848228Y-116388297D01*
X101683816Y-116421000D01*
X101516184Y-116421000D01*
X101351772Y-116388297D01*
X101196900Y-116324147D01*
X101057519Y-116231015D01*
X100938985Y-116112481D01*
X100845853Y-115973100D01*
X100781703Y-115818228D01*
X100749000Y-115653816D01*
X100749000Y-115486184D01*
X100781703Y-115321772D01*
X100845853Y-115166900D01*
X100938985Y-115027519D01*
X101057519Y-114908985D01*
X101196900Y-114815853D01*
X101351772Y-114751703D01*
X101516184Y-114719000D01*
X101683816Y-114719000D01*
X101848228Y-114751703D01*
G37*
G36*
X123438228Y-114751703D02*
G01*
X123593100Y-114815853D01*
X123732481Y-114908985D01*
X123851015Y-115027519D01*
X123944147Y-115166900D01*
X124008297Y-115321772D01*
X124041000Y-115486184D01*
X124041000Y-115653816D01*
X124008297Y-115818228D01*
X123944147Y-115973100D01*
X123851015Y-116112481D01*
X123732481Y-116231015D01*
X123593100Y-116324147D01*
X123438228Y-116388297D01*
X123273816Y-116421000D01*
X123106184Y-116421000D01*
X122941772Y-116388297D01*
X122786900Y-116324147D01*
X122647519Y-116231015D01*
X122528985Y-116112481D01*
X122435853Y-115973100D01*
X122371703Y-115818228D01*
X122339000Y-115653816D01*
X122339000Y-115486184D01*
X122371703Y-115321772D01*
X122435853Y-115166900D01*
X122528985Y-115027519D01*
X122647519Y-114908985D01*
X122786900Y-114815853D01*
X122941772Y-114751703D01*
X123106184Y-114719000D01*
X123273816Y-114719000D01*
X123438228Y-114751703D01*
G37*
G36*
X108198228Y-114751703D02*
G01*
X108353100Y-114815853D01*
X108492481Y-114908985D01*
X108611015Y-115027519D01*
X108704147Y-115166900D01*
X108768297Y-115321772D01*
X108801000Y-115486184D01*
X108801000Y-115653816D01*
X108768297Y-115818228D01*
X108704147Y-115973100D01*
X108611015Y-116112481D01*
X108492481Y-116231015D01*
X108353100Y-116324147D01*
X108198228Y-116388297D01*
X108033816Y-116421000D01*
X107866184Y-116421000D01*
X107701772Y-116388297D01*
X107546900Y-116324147D01*
X107407519Y-116231015D01*
X107288985Y-116112481D01*
X107195853Y-115973100D01*
X107131703Y-115818228D01*
X107099000Y-115653816D01*
X107099000Y-115486184D01*
X107131703Y-115321772D01*
X107195853Y-115166900D01*
X107288985Y-115027519D01*
X107407519Y-114908985D01*
X107546900Y-114815853D01*
X107701772Y-114751703D01*
X107866184Y-114719000D01*
X108033816Y-114719000D01*
X108198228Y-114751703D01*
G37*
G36*
X146298228Y-114751703D02*
G01*
X146453100Y-114815853D01*
X146592481Y-114908985D01*
X146711015Y-115027519D01*
X146804147Y-115166900D01*
X146868297Y-115321772D01*
X146901000Y-115486184D01*
X146901000Y-115653816D01*
X146868297Y-115818228D01*
X146804147Y-115973100D01*
X146711015Y-116112481D01*
X146592481Y-116231015D01*
X146453100Y-116324147D01*
X146298228Y-116388297D01*
X146133816Y-116421000D01*
X145966184Y-116421000D01*
X145801772Y-116388297D01*
X145646900Y-116324147D01*
X145507519Y-116231015D01*
X145388985Y-116112481D01*
X145295853Y-115973100D01*
X145231703Y-115818228D01*
X145199000Y-115653816D01*
X145199000Y-115486184D01*
X145231703Y-115321772D01*
X145295853Y-115166900D01*
X145388985Y-115027519D01*
X145507519Y-114908985D01*
X145646900Y-114815853D01*
X145801772Y-114751703D01*
X145966184Y-114719000D01*
X146133816Y-114719000D01*
X146298228Y-114751703D01*
G37*
G36*
X141218228Y-114751703D02*
G01*
X141373100Y-114815853D01*
X141512481Y-114908985D01*
X141631015Y-115027519D01*
X141724147Y-115166900D01*
X141788297Y-115321772D01*
X141821000Y-115486184D01*
X141821000Y-115653816D01*
X141788297Y-115818228D01*
X141724147Y-115973100D01*
X141631015Y-116112481D01*
X141512481Y-116231015D01*
X141373100Y-116324147D01*
X141218228Y-116388297D01*
X141053816Y-116421000D01*
X140886184Y-116421000D01*
X140721772Y-116388297D01*
X140566900Y-116324147D01*
X140427519Y-116231015D01*
X140308985Y-116112481D01*
X140215853Y-115973100D01*
X140151703Y-115818228D01*
X140119000Y-115653816D01*
X140119000Y-115486184D01*
X140151703Y-115321772D01*
X140215853Y-115166900D01*
X140308985Y-115027519D01*
X140427519Y-114908985D01*
X140566900Y-114815853D01*
X140721772Y-114751703D01*
X140886184Y-114719000D01*
X141053816Y-114719000D01*
X141218228Y-114751703D01*
G37*
G36*
X141218228Y-112211703D02*
G01*
X141373100Y-112275853D01*
X141512481Y-112368985D01*
X141631015Y-112487519D01*
X141724147Y-112626900D01*
X141788297Y-112781772D01*
X141821000Y-112946184D01*
X141821000Y-113113816D01*
X141788297Y-113278228D01*
X141724147Y-113433100D01*
X141631015Y-113572481D01*
X141512481Y-113691015D01*
X141373100Y-113784147D01*
X141218228Y-113848297D01*
X141053816Y-113881000D01*
X140886184Y-113881000D01*
X140721772Y-113848297D01*
X140566900Y-113784147D01*
X140427519Y-113691015D01*
X140308985Y-113572481D01*
X140215853Y-113433100D01*
X140151703Y-113278228D01*
X140119000Y-113113816D01*
X140119000Y-112946184D01*
X140151703Y-112781772D01*
X140215853Y-112626900D01*
X140308985Y-112487519D01*
X140427519Y-112368985D01*
X140566900Y-112275853D01*
X140721772Y-112211703D01*
X140886184Y-112179000D01*
X141053816Y-112179000D01*
X141218228Y-112211703D01*
G37*
G36*
X108198228Y-112211703D02*
G01*
X108353100Y-112275853D01*
X108492481Y-112368985D01*
X108611015Y-112487519D01*
X108704147Y-112626900D01*
X108768297Y-112781772D01*
X108801000Y-112946184D01*
X108801000Y-113113816D01*
X108768297Y-113278228D01*
X108704147Y-113433100D01*
X108611015Y-113572481D01*
X108492481Y-113691015D01*
X108353100Y-113784147D01*
X108198228Y-113848297D01*
X108033816Y-113881000D01*
X107866184Y-113881000D01*
X107701772Y-113848297D01*
X107546900Y-113784147D01*
X107407519Y-113691015D01*
X107288985Y-113572481D01*
X107195853Y-113433100D01*
X107131703Y-113278228D01*
X107099000Y-113113816D01*
X107099000Y-112946184D01*
X107131703Y-112781772D01*
X107195853Y-112626900D01*
X107288985Y-112487519D01*
X107407519Y-112368985D01*
X107546900Y-112275853D01*
X107701772Y-112211703D01*
X107866184Y-112179000D01*
X108033816Y-112179000D01*
X108198228Y-112211703D01*
G37*
G36*
X123438228Y-112211703D02*
G01*
X123593100Y-112275853D01*
X123732481Y-112368985D01*
X123851015Y-112487519D01*
X123944147Y-112626900D01*
X124008297Y-112781772D01*
X124041000Y-112946184D01*
X124041000Y-113113816D01*
X124008297Y-113278228D01*
X123944147Y-113433100D01*
X123851015Y-113572481D01*
X123732481Y-113691015D01*
X123593100Y-113784147D01*
X123438228Y-113848297D01*
X123273816Y-113881000D01*
X123106184Y-113881000D01*
X122941772Y-113848297D01*
X122786900Y-113784147D01*
X122647519Y-113691015D01*
X122528985Y-113572481D01*
X122435853Y-113433100D01*
X122371703Y-113278228D01*
X122339000Y-113113816D01*
X122339000Y-112946184D01*
X122371703Y-112781772D01*
X122435853Y-112626900D01*
X122528985Y-112487519D01*
X122647519Y-112368985D01*
X122786900Y-112275853D01*
X122941772Y-112211703D01*
X123106184Y-112179000D01*
X123273816Y-112179000D01*
X123438228Y-112211703D01*
G37*
G36*
X146298228Y-112211703D02*
G01*
X146453100Y-112275853D01*
X146592481Y-112368985D01*
X146711015Y-112487519D01*
X146804147Y-112626900D01*
X146868297Y-112781772D01*
X146901000Y-112946184D01*
X146901000Y-113113816D01*
X146868297Y-113278228D01*
X146804147Y-113433100D01*
X146711015Y-113572481D01*
X146592481Y-113691015D01*
X146453100Y-113784147D01*
X146298228Y-113848297D01*
X146133816Y-113881000D01*
X145966184Y-113881000D01*
X145801772Y-113848297D01*
X145646900Y-113784147D01*
X145507519Y-113691015D01*
X145388985Y-113572481D01*
X145295853Y-113433100D01*
X145231703Y-113278228D01*
X145199000Y-113113816D01*
X145199000Y-112946184D01*
X145231703Y-112781772D01*
X145295853Y-112626900D01*
X145388985Y-112487519D01*
X145507519Y-112368985D01*
X145646900Y-112275853D01*
X145801772Y-112211703D01*
X145966184Y-112179000D01*
X146133816Y-112179000D01*
X146298228Y-112211703D01*
G37*
G36*
X158531000Y-111541000D02*
G01*
X156429000Y-111541000D01*
X156429000Y-109439000D01*
X158531000Y-109439000D01*
X158531000Y-111541000D01*
G37*
G36*
X132357395Y-109575546D02*
G01*
X132530466Y-109647234D01*
X132530467Y-109647235D01*
X132686227Y-109751310D01*
X132818690Y-109883773D01*
X132861284Y-109947520D01*
X132922766Y-110039534D01*
X132994454Y-110212605D01*
X133031000Y-110396333D01*
X133031000Y-110583667D01*
X132994454Y-110767395D01*
X132922766Y-110940466D01*
X132922765Y-110940467D01*
X132818690Y-111096227D01*
X132686227Y-111228690D01*
X132663092Y-111244148D01*
X132530466Y-111332766D01*
X132357395Y-111404454D01*
X132173667Y-111441000D01*
X131986333Y-111441000D01*
X131802605Y-111404454D01*
X131629534Y-111332766D01*
X131496908Y-111244148D01*
X131473773Y-111228690D01*
X131341310Y-111096227D01*
X131237235Y-110940467D01*
X131237234Y-110940466D01*
X131165546Y-110767395D01*
X131129000Y-110583667D01*
X131129000Y-110396333D01*
X131165546Y-110212605D01*
X131237234Y-110039534D01*
X131298716Y-109947520D01*
X131341310Y-109883773D01*
X131473773Y-109751310D01*
X131629533Y-109647235D01*
X131629534Y-109647234D01*
X131802605Y-109575546D01*
X131986333Y-109539000D01*
X132173667Y-109539000D01*
X132357395Y-109575546D01*
G37*
G36*
X135571000Y-111441000D02*
G01*
X133669000Y-111441000D01*
X133669000Y-109539000D01*
X135571000Y-109539000D01*
X135571000Y-111441000D01*
G37*
G36*
X108198228Y-109671703D02*
G01*
X108353100Y-109735853D01*
X108492481Y-109828985D01*
X108611015Y-109947519D01*
X108704147Y-110086900D01*
X108768297Y-110241772D01*
X108801000Y-110406184D01*
X108801000Y-110573816D01*
X108768297Y-110738228D01*
X108704147Y-110893100D01*
X108611015Y-111032481D01*
X108492481Y-111151015D01*
X108353100Y-111244147D01*
X108198228Y-111308297D01*
X108033816Y-111341000D01*
X107866184Y-111341000D01*
X107701772Y-111308297D01*
X107546900Y-111244147D01*
X107407519Y-111151015D01*
X107288985Y-111032481D01*
X107195853Y-110893100D01*
X107131703Y-110738228D01*
X107099000Y-110573816D01*
X107099000Y-110406184D01*
X107131703Y-110241772D01*
X107195853Y-110086900D01*
X107288985Y-109947519D01*
X107407519Y-109828985D01*
X107546900Y-109735853D01*
X107701772Y-109671703D01*
X107866184Y-109639000D01*
X108033816Y-109639000D01*
X108198228Y-109671703D01*
G37*
G36*
X141821000Y-111341000D02*
G01*
X140119000Y-111341000D01*
X140119000Y-109639000D01*
X141821000Y-109639000D01*
X141821000Y-111341000D01*
G37*
G36*
X146298228Y-109671703D02*
G01*
X146453100Y-109735853D01*
X146592481Y-109828985D01*
X146711015Y-109947519D01*
X146804147Y-110086900D01*
X146868297Y-110241772D01*
X146901000Y-110406184D01*
X146901000Y-110573816D01*
X146868297Y-110738228D01*
X146804147Y-110893100D01*
X146711015Y-111032481D01*
X146592481Y-111151015D01*
X146453100Y-111244147D01*
X146298228Y-111308297D01*
X146133816Y-111341000D01*
X145966184Y-111341000D01*
X145801772Y-111308297D01*
X145646900Y-111244147D01*
X145507519Y-111151015D01*
X145388985Y-111032481D01*
X145295853Y-110893100D01*
X145231703Y-110738228D01*
X145199000Y-110573816D01*
X145199000Y-110406184D01*
X145231703Y-110241772D01*
X145295853Y-110086900D01*
X145388985Y-109947519D01*
X145507519Y-109828985D01*
X145646900Y-109735853D01*
X145801772Y-109671703D01*
X145966184Y-109639000D01*
X146133816Y-109639000D01*
X146298228Y-109671703D01*
G37*
G36*
X123438228Y-109671703D02*
G01*
X123593100Y-109735853D01*
X123732481Y-109828985D01*
X123851015Y-109947519D01*
X123944147Y-110086900D01*
X124008297Y-110241772D01*
X124041000Y-110406184D01*
X124041000Y-110573816D01*
X124008297Y-110738228D01*
X123944147Y-110893100D01*
X123851015Y-111032481D01*
X123732481Y-111151015D01*
X123593100Y-111244147D01*
X123438228Y-111308297D01*
X123273816Y-111341000D01*
X123106184Y-111341000D01*
X122941772Y-111308297D01*
X122786900Y-111244147D01*
X122647519Y-111151015D01*
X122528985Y-111032481D01*
X122435853Y-110893100D01*
X122371703Y-110738228D01*
X122339000Y-110573816D01*
X122339000Y-110406184D01*
X122371703Y-110241772D01*
X122435853Y-110086900D01*
X122528985Y-109947519D01*
X122647519Y-109828985D01*
X122786900Y-109735853D01*
X122941772Y-109671703D01*
X123106184Y-109639000D01*
X123273816Y-109639000D01*
X123438228Y-109671703D01*
G37*
G36*
X128518228Y-108401703D02*
G01*
X128673100Y-108465853D01*
X128812481Y-108558985D01*
X128931015Y-108677519D01*
X129024147Y-108816900D01*
X129088297Y-108971772D01*
X129121000Y-109136184D01*
X129121000Y-109303816D01*
X129088297Y-109468228D01*
X129024147Y-109623100D01*
X128931015Y-109762481D01*
X128812481Y-109881015D01*
X128673100Y-109974147D01*
X128518228Y-110038297D01*
X128353816Y-110071000D01*
X128186184Y-110071000D01*
X128021772Y-110038297D01*
X127866900Y-109974147D01*
X127727519Y-109881015D01*
X127608985Y-109762481D01*
X127515853Y-109623100D01*
X127451703Y-109468228D01*
X127419000Y-109303816D01*
X127419000Y-109136184D01*
X127451703Y-108971772D01*
X127515853Y-108816900D01*
X127608985Y-108677519D01*
X127727519Y-108558985D01*
X127866900Y-108465853D01*
X128021772Y-108401703D01*
X128186184Y-108369000D01*
X128353816Y-108369000D01*
X128518228Y-108401703D01*
G37*
G36*
X108198228Y-107131703D02*
G01*
X108353100Y-107195853D01*
X108492481Y-107288985D01*
X108611015Y-107407519D01*
X108704147Y-107546900D01*
X108768297Y-107701772D01*
X108801000Y-107866184D01*
X108801000Y-108033816D01*
X108768297Y-108198228D01*
X108704147Y-108353100D01*
X108611015Y-108492481D01*
X108492481Y-108611015D01*
X108353100Y-108704147D01*
X108198228Y-108768297D01*
X108033816Y-108801000D01*
X107866184Y-108801000D01*
X107701772Y-108768297D01*
X107546900Y-108704147D01*
X107407519Y-108611015D01*
X107288985Y-108492481D01*
X107195853Y-108353100D01*
X107131703Y-108198228D01*
X107099000Y-108033816D01*
X107099000Y-107866184D01*
X107131703Y-107701772D01*
X107195853Y-107546900D01*
X107288985Y-107407519D01*
X107407519Y-107288985D01*
X107546900Y-107195853D01*
X107701772Y-107131703D01*
X107866184Y-107099000D01*
X108033816Y-107099000D01*
X108198228Y-107131703D01*
G37*
G36*
X123438228Y-107131703D02*
G01*
X123593100Y-107195853D01*
X123732481Y-107288985D01*
X123851015Y-107407519D01*
X123944147Y-107546900D01*
X124008297Y-107701772D01*
X124041000Y-107866184D01*
X124041000Y-108033816D01*
X124008297Y-108198228D01*
X123944147Y-108353100D01*
X123851015Y-108492481D01*
X123732481Y-108611015D01*
X123593100Y-108704147D01*
X123438228Y-108768297D01*
X123273816Y-108801000D01*
X123106184Y-108801000D01*
X122941772Y-108768297D01*
X122786900Y-108704147D01*
X122647519Y-108611015D01*
X122528985Y-108492481D01*
X122435853Y-108353100D01*
X122371703Y-108198228D01*
X122339000Y-108033816D01*
X122339000Y-107866184D01*
X122371703Y-107701772D01*
X122435853Y-107546900D01*
X122528985Y-107407519D01*
X122647519Y-107288985D01*
X122786900Y-107195853D01*
X122941772Y-107131703D01*
X123106184Y-107099000D01*
X123273816Y-107099000D01*
X123438228Y-107131703D01*
G37*
G36*
X101848228Y-104591703D02*
G01*
X102003100Y-104655853D01*
X102142481Y-104748985D01*
X102261015Y-104867519D01*
X102354147Y-105006900D01*
X102418297Y-105161772D01*
X102451000Y-105326184D01*
X102451000Y-105493816D01*
X102418297Y-105658228D01*
X102354147Y-105813100D01*
X102261015Y-105952481D01*
X102142481Y-106071015D01*
X102003100Y-106164147D01*
X101848228Y-106228297D01*
X101683816Y-106261000D01*
X101516184Y-106261000D01*
X101351772Y-106228297D01*
X101196900Y-106164147D01*
X101057519Y-106071015D01*
X100938985Y-105952481D01*
X100845853Y-105813100D01*
X100781703Y-105658228D01*
X100749000Y-105493816D01*
X100749000Y-105326184D01*
X100781703Y-105161772D01*
X100845853Y-105006900D01*
X100938985Y-104867519D01*
X101057519Y-104748985D01*
X101196900Y-104655853D01*
X101351772Y-104591703D01*
X101516184Y-104559000D01*
X101683816Y-104559000D01*
X101848228Y-104591703D01*
G37*
G36*
X108198228Y-104591703D02*
G01*
X108353100Y-104655853D01*
X108492481Y-104748985D01*
X108611015Y-104867519D01*
X108704147Y-105006900D01*
X108768297Y-105161772D01*
X108801000Y-105326184D01*
X108801000Y-105493816D01*
X108768297Y-105658228D01*
X108704147Y-105813100D01*
X108611015Y-105952481D01*
X108492481Y-106071015D01*
X108353100Y-106164147D01*
X108198228Y-106228297D01*
X108033816Y-106261000D01*
X107866184Y-106261000D01*
X107701772Y-106228297D01*
X107546900Y-106164147D01*
X107407519Y-106071015D01*
X107288985Y-105952481D01*
X107195853Y-105813100D01*
X107131703Y-105658228D01*
X107099000Y-105493816D01*
X107099000Y-105326184D01*
X107131703Y-105161772D01*
X107195853Y-105006900D01*
X107288985Y-104867519D01*
X107407519Y-104748985D01*
X107546900Y-104655853D01*
X107701772Y-104591703D01*
X107866184Y-104559000D01*
X108033816Y-104559000D01*
X108198228Y-104591703D01*
G37*
G36*
X123438228Y-104591703D02*
G01*
X123593100Y-104655853D01*
X123732481Y-104748985D01*
X123851015Y-104867519D01*
X123944147Y-105006900D01*
X124008297Y-105161772D01*
X124041000Y-105326184D01*
X124041000Y-105493816D01*
X124008297Y-105658228D01*
X123944147Y-105813100D01*
X123851015Y-105952481D01*
X123732481Y-106071015D01*
X123593100Y-106164147D01*
X123438228Y-106228297D01*
X123273816Y-106261000D01*
X123106184Y-106261000D01*
X122941772Y-106228297D01*
X122786900Y-106164147D01*
X122647519Y-106071015D01*
X122528985Y-105952481D01*
X122435853Y-105813100D01*
X122371703Y-105658228D01*
X122339000Y-105493816D01*
X122339000Y-105326184D01*
X122371703Y-105161772D01*
X122435853Y-105006900D01*
X122528985Y-104867519D01*
X122647519Y-104748985D01*
X122786900Y-104655853D01*
X122941772Y-104591703D01*
X123106184Y-104559000D01*
X123273816Y-104559000D01*
X123438228Y-104591703D01*
G37*
G36*
X108198228Y-102051703D02*
G01*
X108353100Y-102115853D01*
X108492481Y-102208985D01*
X108611015Y-102327519D01*
X108704147Y-102466900D01*
X108768297Y-102621772D01*
X108801000Y-102786184D01*
X108801000Y-102953816D01*
X108768297Y-103118228D01*
X108704147Y-103273100D01*
X108611015Y-103412481D01*
X108492481Y-103531015D01*
X108353100Y-103624147D01*
X108198228Y-103688297D01*
X108033816Y-103721000D01*
X107866184Y-103721000D01*
X107701772Y-103688297D01*
X107546900Y-103624147D01*
X107407519Y-103531015D01*
X107288985Y-103412481D01*
X107195853Y-103273100D01*
X107131703Y-103118228D01*
X107099000Y-102953816D01*
X107099000Y-102786184D01*
X107131703Y-102621772D01*
X107195853Y-102466900D01*
X107288985Y-102327519D01*
X107407519Y-102208985D01*
X107546900Y-102115853D01*
X107701772Y-102051703D01*
X107866184Y-102019000D01*
X108033816Y-102019000D01*
X108198228Y-102051703D01*
G37*
G36*
X123438228Y-102051703D02*
G01*
X123593100Y-102115853D01*
X123732481Y-102208985D01*
X123851015Y-102327519D01*
X123944147Y-102466900D01*
X124008297Y-102621772D01*
X124041000Y-102786184D01*
X124041000Y-102953816D01*
X124008297Y-103118228D01*
X123944147Y-103273100D01*
X123851015Y-103412481D01*
X123732481Y-103531015D01*
X123593100Y-103624147D01*
X123438228Y-103688297D01*
X123273816Y-103721000D01*
X123106184Y-103721000D01*
X122941772Y-103688297D01*
X122786900Y-103624147D01*
X122647519Y-103531015D01*
X122528985Y-103412481D01*
X122435853Y-103273100D01*
X122371703Y-103118228D01*
X122339000Y-102953816D01*
X122339000Y-102786184D01*
X122371703Y-102621772D01*
X122435853Y-102466900D01*
X122528985Y-102327519D01*
X122647519Y-102208985D01*
X122786900Y-102115853D01*
X122941772Y-102051703D01*
X123106184Y-102019000D01*
X123273816Y-102019000D01*
X123438228Y-102051703D01*
G37*
G36*
X108198228Y-99511703D02*
G01*
X108353100Y-99575853D01*
X108492481Y-99668985D01*
X108611015Y-99787519D01*
X108704147Y-99926900D01*
X108768297Y-100081772D01*
X108801000Y-100246184D01*
X108801000Y-100413816D01*
X108768297Y-100578228D01*
X108704147Y-100733100D01*
X108611015Y-100872481D01*
X108492481Y-100991015D01*
X108353100Y-101084147D01*
X108198228Y-101148297D01*
X108033816Y-101181000D01*
X107866184Y-101181000D01*
X107701772Y-101148297D01*
X107546900Y-101084147D01*
X107407519Y-100991015D01*
X107288985Y-100872481D01*
X107195853Y-100733100D01*
X107131703Y-100578228D01*
X107099000Y-100413816D01*
X107099000Y-100246184D01*
X107131703Y-100081772D01*
X107195853Y-99926900D01*
X107288985Y-99787519D01*
X107407519Y-99668985D01*
X107546900Y-99575853D01*
X107701772Y-99511703D01*
X107866184Y-99479000D01*
X108033816Y-99479000D01*
X108198228Y-99511703D01*
G37*
G36*
X165348228Y-99511703D02*
G01*
X165503100Y-99575853D01*
X165642481Y-99668985D01*
X165761015Y-99787519D01*
X165854147Y-99926900D01*
X165918297Y-100081772D01*
X165951000Y-100246184D01*
X165951000Y-100413816D01*
X165918297Y-100578228D01*
X165854147Y-100733100D01*
X165761015Y-100872481D01*
X165642481Y-100991015D01*
X165503100Y-101084147D01*
X165348228Y-101148297D01*
X165183816Y-101181000D01*
X165016184Y-101181000D01*
X164851772Y-101148297D01*
X164696900Y-101084147D01*
X164557519Y-100991015D01*
X164438985Y-100872481D01*
X164345853Y-100733100D01*
X164281703Y-100578228D01*
X164249000Y-100413816D01*
X164249000Y-100246184D01*
X164281703Y-100081772D01*
X164345853Y-99926900D01*
X164438985Y-99787519D01*
X164557519Y-99668985D01*
X164696900Y-99575853D01*
X164851772Y-99511703D01*
X165016184Y-99479000D01*
X165183816Y-99479000D01*
X165348228Y-99511703D01*
G37*
G36*
X155188228Y-99511703D02*
G01*
X155343100Y-99575853D01*
X155482481Y-99668985D01*
X155601015Y-99787519D01*
X155694147Y-99926900D01*
X155758297Y-100081772D01*
X155791000Y-100246184D01*
X155791000Y-100413816D01*
X155758297Y-100578228D01*
X155694147Y-100733100D01*
X155601015Y-100872481D01*
X155482481Y-100991015D01*
X155343100Y-101084147D01*
X155188228Y-101148297D01*
X155023816Y-101181000D01*
X154856184Y-101181000D01*
X154691772Y-101148297D01*
X154536900Y-101084147D01*
X154397519Y-100991015D01*
X154278985Y-100872481D01*
X154185853Y-100733100D01*
X154121703Y-100578228D01*
X154089000Y-100413816D01*
X154089000Y-100246184D01*
X154121703Y-100081772D01*
X154185853Y-99926900D01*
X154278985Y-99787519D01*
X154397519Y-99668985D01*
X154536900Y-99575853D01*
X154691772Y-99511703D01*
X154856184Y-99479000D01*
X155023816Y-99479000D01*
X155188228Y-99511703D01*
G37*
G36*
X150108228Y-99511703D02*
G01*
X150263100Y-99575853D01*
X150402481Y-99668985D01*
X150521015Y-99787519D01*
X150614147Y-99926900D01*
X150678297Y-100081772D01*
X150711000Y-100246184D01*
X150711000Y-100413816D01*
X150678297Y-100578228D01*
X150614147Y-100733100D01*
X150521015Y-100872481D01*
X150402481Y-100991015D01*
X150263100Y-101084147D01*
X150108228Y-101148297D01*
X149943816Y-101181000D01*
X149776184Y-101181000D01*
X149611772Y-101148297D01*
X149456900Y-101084147D01*
X149317519Y-100991015D01*
X149198985Y-100872481D01*
X149105853Y-100733100D01*
X149041703Y-100578228D01*
X149009000Y-100413816D01*
X149009000Y-100246184D01*
X149041703Y-100081772D01*
X149105853Y-99926900D01*
X149198985Y-99787519D01*
X149317519Y-99668985D01*
X149456900Y-99575853D01*
X149611772Y-99511703D01*
X149776184Y-99479000D01*
X149943816Y-99479000D01*
X150108228Y-99511703D01*
G37*
G36*
X139948228Y-99511703D02*
G01*
X140103100Y-99575853D01*
X140242481Y-99668985D01*
X140361015Y-99787519D01*
X140454147Y-99926900D01*
X140518297Y-100081772D01*
X140551000Y-100246184D01*
X140551000Y-100413816D01*
X140518297Y-100578228D01*
X140454147Y-100733100D01*
X140361015Y-100872481D01*
X140242481Y-100991015D01*
X140103100Y-101084147D01*
X139948228Y-101148297D01*
X139783816Y-101181000D01*
X139616184Y-101181000D01*
X139451772Y-101148297D01*
X139296900Y-101084147D01*
X139157519Y-100991015D01*
X139038985Y-100872481D01*
X138945853Y-100733100D01*
X138881703Y-100578228D01*
X138849000Y-100413816D01*
X138849000Y-100246184D01*
X138881703Y-100081772D01*
X138945853Y-99926900D01*
X139038985Y-99787519D01*
X139157519Y-99668985D01*
X139296900Y-99575853D01*
X139451772Y-99511703D01*
X139616184Y-99479000D01*
X139783816Y-99479000D01*
X139948228Y-99511703D01*
G37*
G36*
X134868228Y-99511703D02*
G01*
X135023100Y-99575853D01*
X135162481Y-99668985D01*
X135281015Y-99787519D01*
X135374147Y-99926900D01*
X135438297Y-100081772D01*
X135471000Y-100246184D01*
X135471000Y-100413816D01*
X135438297Y-100578228D01*
X135374147Y-100733100D01*
X135281015Y-100872481D01*
X135162481Y-100991015D01*
X135023100Y-101084147D01*
X134868228Y-101148297D01*
X134703816Y-101181000D01*
X134536184Y-101181000D01*
X134371772Y-101148297D01*
X134216900Y-101084147D01*
X134077519Y-100991015D01*
X133958985Y-100872481D01*
X133865853Y-100733100D01*
X133801703Y-100578228D01*
X133769000Y-100413816D01*
X133769000Y-100246184D01*
X133801703Y-100081772D01*
X133865853Y-99926900D01*
X133958985Y-99787519D01*
X134077519Y-99668985D01*
X134216900Y-99575853D01*
X134371772Y-99511703D01*
X134536184Y-99479000D01*
X134703816Y-99479000D01*
X134868228Y-99511703D01*
G37*
G36*
X129788228Y-99511703D02*
G01*
X129943100Y-99575853D01*
X130082481Y-99668985D01*
X130201015Y-99787519D01*
X130294147Y-99926900D01*
X130358297Y-100081772D01*
X130391000Y-100246184D01*
X130391000Y-100413816D01*
X130358297Y-100578228D01*
X130294147Y-100733100D01*
X130201015Y-100872481D01*
X130082481Y-100991015D01*
X129943100Y-101084147D01*
X129788228Y-101148297D01*
X129623816Y-101181000D01*
X129456184Y-101181000D01*
X129291772Y-101148297D01*
X129136900Y-101084147D01*
X128997519Y-100991015D01*
X128878985Y-100872481D01*
X128785853Y-100733100D01*
X128721703Y-100578228D01*
X128689000Y-100413816D01*
X128689000Y-100246184D01*
X128721703Y-100081772D01*
X128785853Y-99926900D01*
X128878985Y-99787519D01*
X128997519Y-99668985D01*
X129136900Y-99575853D01*
X129291772Y-99511703D01*
X129456184Y-99479000D01*
X129623816Y-99479000D01*
X129788228Y-99511703D01*
G37*
G36*
X160268228Y-99511703D02*
G01*
X160423100Y-99575853D01*
X160562481Y-99668985D01*
X160681015Y-99787519D01*
X160774147Y-99926900D01*
X160838297Y-100081772D01*
X160871000Y-100246184D01*
X160871000Y-100413816D01*
X160838297Y-100578228D01*
X160774147Y-100733100D01*
X160681015Y-100872481D01*
X160562481Y-100991015D01*
X160423100Y-101084147D01*
X160268228Y-101148297D01*
X160103816Y-101181000D01*
X159936184Y-101181000D01*
X159771772Y-101148297D01*
X159616900Y-101084147D01*
X159477519Y-100991015D01*
X159358985Y-100872481D01*
X159265853Y-100733100D01*
X159201703Y-100578228D01*
X159169000Y-100413816D01*
X159169000Y-100246184D01*
X159201703Y-100081772D01*
X159265853Y-99926900D01*
X159358985Y-99787519D01*
X159477519Y-99668985D01*
X159616900Y-99575853D01*
X159771772Y-99511703D01*
X159936184Y-99479000D01*
X160103816Y-99479000D01*
X160268228Y-99511703D01*
G37*
G36*
X123438228Y-99511703D02*
G01*
X123593100Y-99575853D01*
X123732481Y-99668985D01*
X123851015Y-99787519D01*
X123944147Y-99926900D01*
X124008297Y-100081772D01*
X124041000Y-100246184D01*
X124041000Y-100413816D01*
X124008297Y-100578228D01*
X123944147Y-100733100D01*
X123851015Y-100872481D01*
X123732481Y-100991015D01*
X123593100Y-101084147D01*
X123438228Y-101148297D01*
X123273816Y-101181000D01*
X123106184Y-101181000D01*
X122941772Y-101148297D01*
X122786900Y-101084147D01*
X122647519Y-100991015D01*
X122528985Y-100872481D01*
X122435853Y-100733100D01*
X122371703Y-100578228D01*
X122339000Y-100413816D01*
X122339000Y-100246184D01*
X122371703Y-100081772D01*
X122435853Y-99926900D01*
X122528985Y-99787519D01*
X122647519Y-99668985D01*
X122786900Y-99575853D01*
X122941772Y-99511703D01*
X123106184Y-99479000D01*
X123273816Y-99479000D01*
X123438228Y-99511703D01*
G37*
G36*
X145028228Y-99511703D02*
G01*
X145183100Y-99575853D01*
X145322481Y-99668985D01*
X145441015Y-99787519D01*
X145534147Y-99926900D01*
X145598297Y-100081772D01*
X145631000Y-100246184D01*
X145631000Y-100413816D01*
X145598297Y-100578228D01*
X145534147Y-100733100D01*
X145441015Y-100872481D01*
X145322481Y-100991015D01*
X145183100Y-101084147D01*
X145028228Y-101148297D01*
X144863816Y-101181000D01*
X144696184Y-101181000D01*
X144531772Y-101148297D01*
X144376900Y-101084147D01*
X144237519Y-100991015D01*
X144118985Y-100872481D01*
X144025853Y-100733100D01*
X143961703Y-100578228D01*
X143929000Y-100413816D01*
X143929000Y-100246184D01*
X143961703Y-100081772D01*
X144025853Y-99926900D01*
X144118985Y-99787519D01*
X144237519Y-99668985D01*
X144376900Y-99575853D01*
X144531772Y-99511703D01*
X144696184Y-99479000D01*
X144863816Y-99479000D01*
X145028228Y-99511703D01*
G37*
G36*
X101713512Y-98163927D02*
G01*
X101862812Y-98193624D01*
X102026784Y-98261544D01*
X102174354Y-98360147D01*
X102299853Y-98485646D01*
X102398456Y-98633216D01*
X102466376Y-98797188D01*
X102501000Y-98971259D01*
X102501000Y-99148741D01*
X102466376Y-99322812D01*
X102398456Y-99486784D01*
X102299853Y-99634354D01*
X102174354Y-99759853D01*
X102026784Y-99858456D01*
X101862812Y-99926376D01*
X101713512Y-99956073D01*
X101688742Y-99961000D01*
X101511258Y-99961000D01*
X101486488Y-99956073D01*
X101337188Y-99926376D01*
X101173216Y-99858456D01*
X101025646Y-99759853D01*
X100900147Y-99634354D01*
X100801544Y-99486784D01*
X100733624Y-99322812D01*
X100699000Y-99148741D01*
X100699000Y-98971259D01*
X100733624Y-98797188D01*
X100801544Y-98633216D01*
X100900147Y-98485646D01*
X101025646Y-98360147D01*
X101173216Y-98261544D01*
X101337188Y-98193624D01*
X101486488Y-98163927D01*
X101511258Y-98159000D01*
X101688742Y-98159000D01*
X101713512Y-98163927D01*
G37*
G36*
X123438228Y-96971703D02*
G01*
X123593100Y-97035853D01*
X123732481Y-97128985D01*
X123851015Y-97247519D01*
X123944147Y-97386900D01*
X124008297Y-97541772D01*
X124041000Y-97706184D01*
X124041000Y-97873816D01*
X124008297Y-98038228D01*
X123944147Y-98193100D01*
X123851015Y-98332481D01*
X123732481Y-98451015D01*
X123593100Y-98544147D01*
X123438228Y-98608297D01*
X123273816Y-98641000D01*
X123106184Y-98641000D01*
X122941772Y-98608297D01*
X122786900Y-98544147D01*
X122647519Y-98451015D01*
X122528985Y-98332481D01*
X122435853Y-98193100D01*
X122371703Y-98038228D01*
X122339000Y-97873816D01*
X122339000Y-97706184D01*
X122371703Y-97541772D01*
X122435853Y-97386900D01*
X122528985Y-97247519D01*
X122647519Y-97128985D01*
X122786900Y-97035853D01*
X122941772Y-96971703D01*
X123106184Y-96939000D01*
X123273816Y-96939000D01*
X123438228Y-96971703D01*
G37*
G36*
X108198228Y-96971703D02*
G01*
X108353100Y-97035853D01*
X108492481Y-97128985D01*
X108611015Y-97247519D01*
X108704147Y-97386900D01*
X108768297Y-97541772D01*
X108801000Y-97706184D01*
X108801000Y-97873816D01*
X108768297Y-98038228D01*
X108704147Y-98193100D01*
X108611015Y-98332481D01*
X108492481Y-98451015D01*
X108353100Y-98544147D01*
X108198228Y-98608297D01*
X108033816Y-98641000D01*
X107866184Y-98641000D01*
X107701772Y-98608297D01*
X107546900Y-98544147D01*
X107407519Y-98451015D01*
X107288985Y-98332481D01*
X107195853Y-98193100D01*
X107131703Y-98038228D01*
X107099000Y-97873816D01*
X107099000Y-97706184D01*
X107131703Y-97541772D01*
X107195853Y-97386900D01*
X107288985Y-97247519D01*
X107407519Y-97128985D01*
X107546900Y-97035853D01*
X107701772Y-96971703D01*
X107866184Y-96939000D01*
X108033816Y-96939000D01*
X108198228Y-96971703D01*
G37*
G36*
X102501000Y-97421000D02*
G01*
X100699000Y-97421000D01*
X100699000Y-95619000D01*
X102501000Y-95619000D01*
X102501000Y-97421000D01*
G37*
G36*
X123438228Y-94431703D02*
G01*
X123593100Y-94495853D01*
X123732481Y-94588985D01*
X123851015Y-94707519D01*
X123944147Y-94846900D01*
X124008297Y-95001772D01*
X124041000Y-95166184D01*
X124041000Y-95333816D01*
X124008297Y-95498228D01*
X123944147Y-95653100D01*
X123851015Y-95792481D01*
X123732481Y-95911015D01*
X123593100Y-96004147D01*
X123438228Y-96068297D01*
X123273816Y-96101000D01*
X123106184Y-96101000D01*
X122941772Y-96068297D01*
X122786900Y-96004147D01*
X122647519Y-95911015D01*
X122528985Y-95792481D01*
X122435853Y-95653100D01*
X122371703Y-95498228D01*
X122339000Y-95333816D01*
X122339000Y-95166184D01*
X122371703Y-95001772D01*
X122435853Y-94846900D01*
X122528985Y-94707519D01*
X122647519Y-94588985D01*
X122786900Y-94495853D01*
X122941772Y-94431703D01*
X123106184Y-94399000D01*
X123273816Y-94399000D01*
X123438228Y-94431703D01*
G37*
G36*
X108198228Y-94431703D02*
G01*
X108353100Y-94495853D01*
X108492481Y-94588985D01*
X108611015Y-94707519D01*
X108704147Y-94846900D01*
X108768297Y-95001772D01*
X108801000Y-95166184D01*
X108801000Y-95333816D01*
X108768297Y-95498228D01*
X108704147Y-95653100D01*
X108611015Y-95792481D01*
X108492481Y-95911015D01*
X108353100Y-96004147D01*
X108198228Y-96068297D01*
X108033816Y-96101000D01*
X107866184Y-96101000D01*
X107701772Y-96068297D01*
X107546900Y-96004147D01*
X107407519Y-95911015D01*
X107288985Y-95792481D01*
X107195853Y-95653100D01*
X107131703Y-95498228D01*
X107099000Y-95333816D01*
X107099000Y-95166184D01*
X107131703Y-95001772D01*
X107195853Y-94846900D01*
X107288985Y-94707519D01*
X107407519Y-94588985D01*
X107546900Y-94495853D01*
X107701772Y-94431703D01*
X107866184Y-94399000D01*
X108033816Y-94399000D01*
X108198228Y-94431703D01*
G37*
G36*
X123438228Y-91891703D02*
G01*
X123593100Y-91955853D01*
X123732481Y-92048985D01*
X123851015Y-92167519D01*
X123944147Y-92306900D01*
X124008297Y-92461772D01*
X124041000Y-92626184D01*
X124041000Y-92793816D01*
X124008297Y-92958228D01*
X123944147Y-93113100D01*
X123851015Y-93252481D01*
X123732481Y-93371015D01*
X123593100Y-93464147D01*
X123438228Y-93528297D01*
X123273816Y-93561000D01*
X123106184Y-93561000D01*
X122941772Y-93528297D01*
X122786900Y-93464147D01*
X122647519Y-93371015D01*
X122528985Y-93252481D01*
X122435853Y-93113100D01*
X122371703Y-92958228D01*
X122339000Y-92793816D01*
X122339000Y-92626184D01*
X122371703Y-92461772D01*
X122435853Y-92306900D01*
X122528985Y-92167519D01*
X122647519Y-92048985D01*
X122786900Y-91955853D01*
X122941772Y-91891703D01*
X123106184Y-91859000D01*
X123273816Y-91859000D01*
X123438228Y-91891703D01*
G37*
G36*
X108198228Y-91891703D02*
G01*
X108353100Y-91955853D01*
X108492481Y-92048985D01*
X108611015Y-92167519D01*
X108704147Y-92306900D01*
X108768297Y-92461772D01*
X108801000Y-92626184D01*
X108801000Y-92793816D01*
X108768297Y-92958228D01*
X108704147Y-93113100D01*
X108611015Y-93252481D01*
X108492481Y-93371015D01*
X108353100Y-93464147D01*
X108198228Y-93528297D01*
X108033816Y-93561000D01*
X107866184Y-93561000D01*
X107701772Y-93528297D01*
X107546900Y-93464147D01*
X107407519Y-93371015D01*
X107288985Y-93252481D01*
X107195853Y-93113100D01*
X107131703Y-92958228D01*
X107099000Y-92793816D01*
X107099000Y-92626184D01*
X107131703Y-92461772D01*
X107195853Y-92306900D01*
X107288985Y-92167519D01*
X107407519Y-92048985D01*
X107546900Y-91955853D01*
X107701772Y-91891703D01*
X107866184Y-91859000D01*
X108033816Y-91859000D01*
X108198228Y-91891703D01*
G37*
G36*
X123438228Y-89351703D02*
G01*
X123593100Y-89415853D01*
X123732481Y-89508985D01*
X123851015Y-89627519D01*
X123944147Y-89766900D01*
X124008297Y-89921772D01*
X124041000Y-90086184D01*
X124041000Y-90253816D01*
X124008297Y-90418228D01*
X123944147Y-90573100D01*
X123851015Y-90712481D01*
X123732481Y-90831015D01*
X123593100Y-90924147D01*
X123438228Y-90988297D01*
X123273816Y-91021000D01*
X123106184Y-91021000D01*
X122941772Y-90988297D01*
X122786900Y-90924147D01*
X122647519Y-90831015D01*
X122528985Y-90712481D01*
X122435853Y-90573100D01*
X122371703Y-90418228D01*
X122339000Y-90253816D01*
X122339000Y-90086184D01*
X122371703Y-89921772D01*
X122435853Y-89766900D01*
X122528985Y-89627519D01*
X122647519Y-89508985D01*
X122786900Y-89415853D01*
X122941772Y-89351703D01*
X123106184Y-89319000D01*
X123273816Y-89319000D01*
X123438228Y-89351703D01*
G37*
G36*
X165348228Y-89351703D02*
G01*
X165503100Y-89415853D01*
X165642481Y-89508985D01*
X165761015Y-89627519D01*
X165854147Y-89766900D01*
X165918297Y-89921772D01*
X165951000Y-90086184D01*
X165951000Y-90253816D01*
X165918297Y-90418228D01*
X165854147Y-90573100D01*
X165761015Y-90712481D01*
X165642481Y-90831015D01*
X165503100Y-90924147D01*
X165348228Y-90988297D01*
X165183816Y-91021000D01*
X165016184Y-91021000D01*
X164851772Y-90988297D01*
X164696900Y-90924147D01*
X164557519Y-90831015D01*
X164438985Y-90712481D01*
X164345853Y-90573100D01*
X164281703Y-90418228D01*
X164249000Y-90253816D01*
X164249000Y-90086184D01*
X164281703Y-89921772D01*
X164345853Y-89766900D01*
X164438985Y-89627519D01*
X164557519Y-89508985D01*
X164696900Y-89415853D01*
X164851772Y-89351703D01*
X165016184Y-89319000D01*
X165183816Y-89319000D01*
X165348228Y-89351703D01*
G37*
G36*
X129788228Y-89351703D02*
G01*
X129943100Y-89415853D01*
X130082481Y-89508985D01*
X130201015Y-89627519D01*
X130294147Y-89766900D01*
X130358297Y-89921772D01*
X130391000Y-90086184D01*
X130391000Y-90253816D01*
X130358297Y-90418228D01*
X130294147Y-90573100D01*
X130201015Y-90712481D01*
X130082481Y-90831015D01*
X129943100Y-90924147D01*
X129788228Y-90988297D01*
X129623816Y-91021000D01*
X129456184Y-91021000D01*
X129291772Y-90988297D01*
X129136900Y-90924147D01*
X128997519Y-90831015D01*
X128878985Y-90712481D01*
X128785853Y-90573100D01*
X128721703Y-90418228D01*
X128689000Y-90253816D01*
X128689000Y-90086184D01*
X128721703Y-89921772D01*
X128785853Y-89766900D01*
X128878985Y-89627519D01*
X128997519Y-89508985D01*
X129136900Y-89415853D01*
X129291772Y-89351703D01*
X129456184Y-89319000D01*
X129623816Y-89319000D01*
X129788228Y-89351703D01*
G37*
G36*
X139948228Y-89351703D02*
G01*
X140103100Y-89415853D01*
X140242481Y-89508985D01*
X140361015Y-89627519D01*
X140454147Y-89766900D01*
X140518297Y-89921772D01*
X140551000Y-90086184D01*
X140551000Y-90253816D01*
X140518297Y-90418228D01*
X140454147Y-90573100D01*
X140361015Y-90712481D01*
X140242481Y-90831015D01*
X140103100Y-90924147D01*
X139948228Y-90988297D01*
X139783816Y-91021000D01*
X139616184Y-91021000D01*
X139451772Y-90988297D01*
X139296900Y-90924147D01*
X139157519Y-90831015D01*
X139038985Y-90712481D01*
X138945853Y-90573100D01*
X138881703Y-90418228D01*
X138849000Y-90253816D01*
X138849000Y-90086184D01*
X138881703Y-89921772D01*
X138945853Y-89766900D01*
X139038985Y-89627519D01*
X139157519Y-89508985D01*
X139296900Y-89415853D01*
X139451772Y-89351703D01*
X139616184Y-89319000D01*
X139783816Y-89319000D01*
X139948228Y-89351703D01*
G37*
G36*
X155188228Y-89351703D02*
G01*
X155343100Y-89415853D01*
X155482481Y-89508985D01*
X155601015Y-89627519D01*
X155694147Y-89766900D01*
X155758297Y-89921772D01*
X155791000Y-90086184D01*
X155791000Y-90253816D01*
X155758297Y-90418228D01*
X155694147Y-90573100D01*
X155601015Y-90712481D01*
X155482481Y-90831015D01*
X155343100Y-90924147D01*
X155188228Y-90988297D01*
X155023816Y-91021000D01*
X154856184Y-91021000D01*
X154691772Y-90988297D01*
X154536900Y-90924147D01*
X154397519Y-90831015D01*
X154278985Y-90712481D01*
X154185853Y-90573100D01*
X154121703Y-90418228D01*
X154089000Y-90253816D01*
X154089000Y-90086184D01*
X154121703Y-89921772D01*
X154185853Y-89766900D01*
X154278985Y-89627519D01*
X154397519Y-89508985D01*
X154536900Y-89415853D01*
X154691772Y-89351703D01*
X154856184Y-89319000D01*
X155023816Y-89319000D01*
X155188228Y-89351703D01*
G37*
G36*
X150108228Y-89351703D02*
G01*
X150263100Y-89415853D01*
X150402481Y-89508985D01*
X150521015Y-89627519D01*
X150614147Y-89766900D01*
X150678297Y-89921772D01*
X150711000Y-90086184D01*
X150711000Y-90253816D01*
X150678297Y-90418228D01*
X150614147Y-90573100D01*
X150521015Y-90712481D01*
X150402481Y-90831015D01*
X150263100Y-90924147D01*
X150108228Y-90988297D01*
X149943816Y-91021000D01*
X149776184Y-91021000D01*
X149611772Y-90988297D01*
X149456900Y-90924147D01*
X149317519Y-90831015D01*
X149198985Y-90712481D01*
X149105853Y-90573100D01*
X149041703Y-90418228D01*
X149009000Y-90253816D01*
X149009000Y-90086184D01*
X149041703Y-89921772D01*
X149105853Y-89766900D01*
X149198985Y-89627519D01*
X149317519Y-89508985D01*
X149456900Y-89415853D01*
X149611772Y-89351703D01*
X149776184Y-89319000D01*
X149943816Y-89319000D01*
X150108228Y-89351703D01*
G37*
G36*
X145028228Y-89351703D02*
G01*
X145183100Y-89415853D01*
X145322481Y-89508985D01*
X145441015Y-89627519D01*
X145534147Y-89766900D01*
X145598297Y-89921772D01*
X145631000Y-90086184D01*
X145631000Y-90253816D01*
X145598297Y-90418228D01*
X145534147Y-90573100D01*
X145441015Y-90712481D01*
X145322481Y-90831015D01*
X145183100Y-90924147D01*
X145028228Y-90988297D01*
X144863816Y-91021000D01*
X144696184Y-91021000D01*
X144531772Y-90988297D01*
X144376900Y-90924147D01*
X144237519Y-90831015D01*
X144118985Y-90712481D01*
X144025853Y-90573100D01*
X143961703Y-90418228D01*
X143929000Y-90253816D01*
X143929000Y-90086184D01*
X143961703Y-89921772D01*
X144025853Y-89766900D01*
X144118985Y-89627519D01*
X144237519Y-89508985D01*
X144376900Y-89415853D01*
X144531772Y-89351703D01*
X144696184Y-89319000D01*
X144863816Y-89319000D01*
X145028228Y-89351703D01*
G37*
G36*
X108198228Y-89351703D02*
G01*
X108353100Y-89415853D01*
X108492481Y-89508985D01*
X108611015Y-89627519D01*
X108704147Y-89766900D01*
X108768297Y-89921772D01*
X108801000Y-90086184D01*
X108801000Y-90253816D01*
X108768297Y-90418228D01*
X108704147Y-90573100D01*
X108611015Y-90712481D01*
X108492481Y-90831015D01*
X108353100Y-90924147D01*
X108198228Y-90988297D01*
X108033816Y-91021000D01*
X107866184Y-91021000D01*
X107701772Y-90988297D01*
X107546900Y-90924147D01*
X107407519Y-90831015D01*
X107288985Y-90712481D01*
X107195853Y-90573100D01*
X107131703Y-90418228D01*
X107099000Y-90253816D01*
X107099000Y-90086184D01*
X107131703Y-89921772D01*
X107195853Y-89766900D01*
X107288985Y-89627519D01*
X107407519Y-89508985D01*
X107546900Y-89415853D01*
X107701772Y-89351703D01*
X107866184Y-89319000D01*
X108033816Y-89319000D01*
X108198228Y-89351703D01*
G37*
G36*
X160268228Y-89351703D02*
G01*
X160423100Y-89415853D01*
X160562481Y-89508985D01*
X160681015Y-89627519D01*
X160774147Y-89766900D01*
X160838297Y-89921772D01*
X160871000Y-90086184D01*
X160871000Y-90253816D01*
X160838297Y-90418228D01*
X160774147Y-90573100D01*
X160681015Y-90712481D01*
X160562481Y-90831015D01*
X160423100Y-90924147D01*
X160268228Y-90988297D01*
X160103816Y-91021000D01*
X159936184Y-91021000D01*
X159771772Y-90988297D01*
X159616900Y-90924147D01*
X159477519Y-90831015D01*
X159358985Y-90712481D01*
X159265853Y-90573100D01*
X159201703Y-90418228D01*
X159169000Y-90253816D01*
X159169000Y-90086184D01*
X159201703Y-89921772D01*
X159265853Y-89766900D01*
X159358985Y-89627519D01*
X159477519Y-89508985D01*
X159616900Y-89415853D01*
X159771772Y-89351703D01*
X159936184Y-89319000D01*
X160103816Y-89319000D01*
X160268228Y-89351703D01*
G37*
G36*
X134868228Y-89351703D02*
G01*
X135023100Y-89415853D01*
X135162481Y-89508985D01*
X135281015Y-89627519D01*
X135374147Y-89766900D01*
X135438297Y-89921772D01*
X135471000Y-90086184D01*
X135471000Y-90253816D01*
X135438297Y-90418228D01*
X135374147Y-90573100D01*
X135281015Y-90712481D01*
X135162481Y-90831015D01*
X135023100Y-90924147D01*
X134868228Y-90988297D01*
X134703816Y-91021000D01*
X134536184Y-91021000D01*
X134371772Y-90988297D01*
X134216900Y-90924147D01*
X134077519Y-90831015D01*
X133958985Y-90712481D01*
X133865853Y-90573100D01*
X133801703Y-90418228D01*
X133769000Y-90253816D01*
X133769000Y-90086184D01*
X133801703Y-89921772D01*
X133865853Y-89766900D01*
X133958985Y-89627519D01*
X134077519Y-89508985D01*
X134216900Y-89415853D01*
X134371772Y-89351703D01*
X134536184Y-89319000D01*
X134703816Y-89319000D01*
X134868228Y-89351703D01*
G37*
G36*
X101713512Y-86733927D02*
G01*
X101862812Y-86763624D01*
X102026784Y-86831544D01*
X102174354Y-86930147D01*
X102299853Y-87055646D01*
X102398456Y-87203216D01*
X102466376Y-87367188D01*
X102501000Y-87541259D01*
X102501000Y-87718741D01*
X102466376Y-87892812D01*
X102398456Y-88056784D01*
X102299853Y-88204354D01*
X102174354Y-88329853D01*
X102026784Y-88428456D01*
X101862812Y-88496376D01*
X101713512Y-88526073D01*
X101688742Y-88531000D01*
X101511258Y-88531000D01*
X101486488Y-88526073D01*
X101337188Y-88496376D01*
X101173216Y-88428456D01*
X101025646Y-88329853D01*
X100900147Y-88204354D01*
X100801544Y-88056784D01*
X100733624Y-87892812D01*
X100699000Y-87718741D01*
X100699000Y-87541259D01*
X100733624Y-87367188D01*
X100801544Y-87203216D01*
X100900147Y-87055646D01*
X101025646Y-86930147D01*
X101173216Y-86831544D01*
X101337188Y-86763624D01*
X101486488Y-86733927D01*
X101511258Y-86729000D01*
X101688742Y-86729000D01*
X101713512Y-86733927D01*
G37*
G36*
X108198228Y-86811703D02*
G01*
X108353100Y-86875853D01*
X108492481Y-86968985D01*
X108611015Y-87087519D01*
X108704147Y-87226900D01*
X108768297Y-87381772D01*
X108801000Y-87546184D01*
X108801000Y-87713816D01*
X108768297Y-87878228D01*
X108704147Y-88033100D01*
X108611015Y-88172481D01*
X108492481Y-88291015D01*
X108353100Y-88384147D01*
X108198228Y-88448297D01*
X108033816Y-88481000D01*
X107866184Y-88481000D01*
X107701772Y-88448297D01*
X107546900Y-88384147D01*
X107407519Y-88291015D01*
X107288985Y-88172481D01*
X107195853Y-88033100D01*
X107131703Y-87878228D01*
X107099000Y-87713816D01*
X107099000Y-87546184D01*
X107131703Y-87381772D01*
X107195853Y-87226900D01*
X107288985Y-87087519D01*
X107407519Y-86968985D01*
X107546900Y-86875853D01*
X107701772Y-86811703D01*
X107866184Y-86779000D01*
X108033816Y-86779000D01*
X108198228Y-86811703D01*
G37*
G36*
X123438228Y-86811703D02*
G01*
X123593100Y-86875853D01*
X123732481Y-86968985D01*
X123851015Y-87087519D01*
X123944147Y-87226900D01*
X124008297Y-87381772D01*
X124041000Y-87546184D01*
X124041000Y-87713816D01*
X124008297Y-87878228D01*
X123944147Y-88033100D01*
X123851015Y-88172481D01*
X123732481Y-88291015D01*
X123593100Y-88384147D01*
X123438228Y-88448297D01*
X123273816Y-88481000D01*
X123106184Y-88481000D01*
X122941772Y-88448297D01*
X122786900Y-88384147D01*
X122647519Y-88291015D01*
X122528985Y-88172481D01*
X122435853Y-88033100D01*
X122371703Y-87878228D01*
X122339000Y-87713816D01*
X122339000Y-87546184D01*
X122371703Y-87381772D01*
X122435853Y-87226900D01*
X122528985Y-87087519D01*
X122647519Y-86968985D01*
X122786900Y-86875853D01*
X122941772Y-86811703D01*
X123106184Y-86779000D01*
X123273816Y-86779000D01*
X123438228Y-86811703D01*
G37*
G36*
X102501000Y-85991000D02*
G01*
X100699000Y-85991000D01*
X100699000Y-84189000D01*
X102501000Y-84189000D01*
X102501000Y-85991000D01*
G37*
G36*
X123438228Y-84271703D02*
G01*
X123593100Y-84335853D01*
X123732481Y-84428985D01*
X123851015Y-84547519D01*
X123944147Y-84686900D01*
X124008297Y-84841772D01*
X124041000Y-85006184D01*
X124041000Y-85173816D01*
X124008297Y-85338228D01*
X123944147Y-85493100D01*
X123851015Y-85632481D01*
X123732481Y-85751015D01*
X123593100Y-85844147D01*
X123438228Y-85908297D01*
X123273816Y-85941000D01*
X123106184Y-85941000D01*
X122941772Y-85908297D01*
X122786900Y-85844147D01*
X122647519Y-85751015D01*
X122528985Y-85632481D01*
X122435853Y-85493100D01*
X122371703Y-85338228D01*
X122339000Y-85173816D01*
X122339000Y-85006184D01*
X122371703Y-84841772D01*
X122435853Y-84686900D01*
X122528985Y-84547519D01*
X122647519Y-84428985D01*
X122786900Y-84335853D01*
X122941772Y-84271703D01*
X123106184Y-84239000D01*
X123273816Y-84239000D01*
X123438228Y-84271703D01*
G37*
G36*
X156458228Y-84271703D02*
G01*
X156613100Y-84335853D01*
X156752481Y-84428985D01*
X156871015Y-84547519D01*
X156964147Y-84686900D01*
X157028297Y-84841772D01*
X157061000Y-85006184D01*
X157061000Y-85173816D01*
X157028297Y-85338228D01*
X156964147Y-85493100D01*
X156871015Y-85632481D01*
X156752481Y-85751015D01*
X156613100Y-85844147D01*
X156458228Y-85908297D01*
X156293816Y-85941000D01*
X156126184Y-85941000D01*
X155961772Y-85908297D01*
X155806900Y-85844147D01*
X155667519Y-85751015D01*
X155548985Y-85632481D01*
X155455853Y-85493100D01*
X155391703Y-85338228D01*
X155359000Y-85173816D01*
X155359000Y-85006184D01*
X155391703Y-84841772D01*
X155455853Y-84686900D01*
X155548985Y-84547519D01*
X155667519Y-84428985D01*
X155806900Y-84335853D01*
X155961772Y-84271703D01*
X156126184Y-84239000D01*
X156293816Y-84239000D01*
X156458228Y-84271703D01*
G37*
G36*
X153918228Y-84271703D02*
G01*
X154073100Y-84335853D01*
X154212481Y-84428985D01*
X154331015Y-84547519D01*
X154424147Y-84686900D01*
X154488297Y-84841772D01*
X154521000Y-85006184D01*
X154521000Y-85173816D01*
X154488297Y-85338228D01*
X154424147Y-85493100D01*
X154331015Y-85632481D01*
X154212481Y-85751015D01*
X154073100Y-85844147D01*
X153918228Y-85908297D01*
X153753816Y-85941000D01*
X153586184Y-85941000D01*
X153421772Y-85908297D01*
X153266900Y-85844147D01*
X153127519Y-85751015D01*
X153008985Y-85632481D01*
X152915853Y-85493100D01*
X152851703Y-85338228D01*
X152819000Y-85173816D01*
X152819000Y-85006184D01*
X152851703Y-84841772D01*
X152915853Y-84686900D01*
X153008985Y-84547519D01*
X153127519Y-84428985D01*
X153266900Y-84335853D01*
X153421772Y-84271703D01*
X153586184Y-84239000D01*
X153753816Y-84239000D01*
X153918228Y-84271703D01*
G37*
G36*
X151378228Y-84271703D02*
G01*
X151533100Y-84335853D01*
X151672481Y-84428985D01*
X151791015Y-84547519D01*
X151884147Y-84686900D01*
X151948297Y-84841772D01*
X151981000Y-85006184D01*
X151981000Y-85173816D01*
X151948297Y-85338228D01*
X151884147Y-85493100D01*
X151791015Y-85632481D01*
X151672481Y-85751015D01*
X151533100Y-85844147D01*
X151378228Y-85908297D01*
X151213816Y-85941000D01*
X151046184Y-85941000D01*
X150881772Y-85908297D01*
X150726900Y-85844147D01*
X150587519Y-85751015D01*
X150468985Y-85632481D01*
X150375853Y-85493100D01*
X150311703Y-85338228D01*
X150279000Y-85173816D01*
X150279000Y-85006184D01*
X150311703Y-84841772D01*
X150375853Y-84686900D01*
X150468985Y-84547519D01*
X150587519Y-84428985D01*
X150726900Y-84335853D01*
X150881772Y-84271703D01*
X151046184Y-84239000D01*
X151213816Y-84239000D01*
X151378228Y-84271703D01*
G37*
G36*
X148838228Y-84271703D02*
G01*
X148993100Y-84335853D01*
X149132481Y-84428985D01*
X149251015Y-84547519D01*
X149344147Y-84686900D01*
X149408297Y-84841772D01*
X149441000Y-85006184D01*
X149441000Y-85173816D01*
X149408297Y-85338228D01*
X149344147Y-85493100D01*
X149251015Y-85632481D01*
X149132481Y-85751015D01*
X148993100Y-85844147D01*
X148838228Y-85908297D01*
X148673816Y-85941000D01*
X148506184Y-85941000D01*
X148341772Y-85908297D01*
X148186900Y-85844147D01*
X148047519Y-85751015D01*
X147928985Y-85632481D01*
X147835853Y-85493100D01*
X147771703Y-85338228D01*
X147739000Y-85173816D01*
X147739000Y-85006184D01*
X147771703Y-84841772D01*
X147835853Y-84686900D01*
X147928985Y-84547519D01*
X148047519Y-84428985D01*
X148186900Y-84335853D01*
X148341772Y-84271703D01*
X148506184Y-84239000D01*
X148673816Y-84239000D01*
X148838228Y-84271703D01*
G37*
G36*
X141218228Y-84271703D02*
G01*
X141373100Y-84335853D01*
X141512481Y-84428985D01*
X141631015Y-84547519D01*
X141724147Y-84686900D01*
X141788297Y-84841772D01*
X141821000Y-85006184D01*
X141821000Y-85173816D01*
X141788297Y-85338228D01*
X141724147Y-85493100D01*
X141631015Y-85632481D01*
X141512481Y-85751015D01*
X141373100Y-85844147D01*
X141218228Y-85908297D01*
X141053816Y-85941000D01*
X140886184Y-85941000D01*
X140721772Y-85908297D01*
X140566900Y-85844147D01*
X140427519Y-85751015D01*
X140308985Y-85632481D01*
X140215853Y-85493100D01*
X140151703Y-85338228D01*
X140119000Y-85173816D01*
X140119000Y-85006184D01*
X140151703Y-84841772D01*
X140215853Y-84686900D01*
X140308985Y-84547519D01*
X140427519Y-84428985D01*
X140566900Y-84335853D01*
X140721772Y-84271703D01*
X140886184Y-84239000D01*
X141053816Y-84239000D01*
X141218228Y-84271703D01*
G37*
G36*
X139281000Y-85941000D02*
G01*
X137579000Y-85941000D01*
X137579000Y-84239000D01*
X139281000Y-84239000D01*
X139281000Y-85941000D01*
G37*
G36*
X143758228Y-84271703D02*
G01*
X143913100Y-84335853D01*
X144052481Y-84428985D01*
X144171015Y-84547519D01*
X144264147Y-84686900D01*
X144328297Y-84841772D01*
X144361000Y-85006184D01*
X144361000Y-85173816D01*
X144328297Y-85338228D01*
X144264147Y-85493100D01*
X144171015Y-85632481D01*
X144052481Y-85751015D01*
X143913100Y-85844147D01*
X143758228Y-85908297D01*
X143593816Y-85941000D01*
X143426184Y-85941000D01*
X143261772Y-85908297D01*
X143106900Y-85844147D01*
X142967519Y-85751015D01*
X142848985Y-85632481D01*
X142755853Y-85493100D01*
X142691703Y-85338228D01*
X142659000Y-85173816D01*
X142659000Y-85006184D01*
X142691703Y-84841772D01*
X142755853Y-84686900D01*
X142848985Y-84547519D01*
X142967519Y-84428985D01*
X143106900Y-84335853D01*
X143261772Y-84271703D01*
X143426184Y-84239000D01*
X143593816Y-84239000D01*
X143758228Y-84271703D01*
G37*
G36*
X108198228Y-84271703D02*
G01*
X108353100Y-84335853D01*
X108492481Y-84428985D01*
X108611015Y-84547519D01*
X108704147Y-84686900D01*
X108768297Y-84841772D01*
X108801000Y-85006184D01*
X108801000Y-85173816D01*
X108768297Y-85338228D01*
X108704147Y-85493100D01*
X108611015Y-85632481D01*
X108492481Y-85751015D01*
X108353100Y-85844147D01*
X108198228Y-85908297D01*
X108033816Y-85941000D01*
X107866184Y-85941000D01*
X107701772Y-85908297D01*
X107546900Y-85844147D01*
X107407519Y-85751015D01*
X107288985Y-85632481D01*
X107195853Y-85493100D01*
X107131703Y-85338228D01*
X107099000Y-85173816D01*
X107099000Y-85006184D01*
X107131703Y-84841772D01*
X107195853Y-84686900D01*
X107288985Y-84547519D01*
X107407519Y-84428985D01*
X107546900Y-84335853D01*
X107701772Y-84271703D01*
X107866184Y-84239000D01*
X108033816Y-84239000D01*
X108198228Y-84271703D01*
G37*
G36*
X146298228Y-84271703D02*
G01*
X146453100Y-84335853D01*
X146592481Y-84428985D01*
X146711015Y-84547519D01*
X146804147Y-84686900D01*
X146868297Y-84841772D01*
X146901000Y-85006184D01*
X146901000Y-85173816D01*
X146868297Y-85338228D01*
X146804147Y-85493100D01*
X146711015Y-85632481D01*
X146592481Y-85751015D01*
X146453100Y-85844147D01*
X146298228Y-85908297D01*
X146133816Y-85941000D01*
X145966184Y-85941000D01*
X145801772Y-85908297D01*
X145646900Y-85844147D01*
X145507519Y-85751015D01*
X145388985Y-85632481D01*
X145295853Y-85493100D01*
X145231703Y-85338228D01*
X145199000Y-85173816D01*
X145199000Y-85006184D01*
X145231703Y-84841772D01*
X145295853Y-84686900D01*
X145388985Y-84547519D01*
X145507519Y-84428985D01*
X145646900Y-84335853D01*
X145801772Y-84271703D01*
X145966184Y-84239000D01*
X146133816Y-84239000D01*
X146298228Y-84271703D01*
G37*
G36*
X123438228Y-81731703D02*
G01*
X123593100Y-81795853D01*
X123732481Y-81888985D01*
X123851015Y-82007519D01*
X123944147Y-82146900D01*
X124008297Y-82301772D01*
X124041000Y-82466184D01*
X124041000Y-82633816D01*
X124008297Y-82798228D01*
X123944147Y-82953100D01*
X123851015Y-83092481D01*
X123732481Y-83211015D01*
X123593100Y-83304147D01*
X123438228Y-83368297D01*
X123273816Y-83401000D01*
X123106184Y-83401000D01*
X122941772Y-83368297D01*
X122786900Y-83304147D01*
X122647519Y-83211015D01*
X122528985Y-83092481D01*
X122435853Y-82953100D01*
X122371703Y-82798228D01*
X122339000Y-82633816D01*
X122339000Y-82466184D01*
X122371703Y-82301772D01*
X122435853Y-82146900D01*
X122528985Y-82007519D01*
X122647519Y-81888985D01*
X122786900Y-81795853D01*
X122941772Y-81731703D01*
X123106184Y-81699000D01*
X123273816Y-81699000D01*
X123438228Y-81731703D01*
G37*
G36*
X108198228Y-81731703D02*
G01*
X108353100Y-81795853D01*
X108492481Y-81888985D01*
X108611015Y-82007519D01*
X108704147Y-82146900D01*
X108768297Y-82301772D01*
X108801000Y-82466184D01*
X108801000Y-82633816D01*
X108768297Y-82798228D01*
X108704147Y-82953100D01*
X108611015Y-83092481D01*
X108492481Y-83211015D01*
X108353100Y-83304147D01*
X108198228Y-83368297D01*
X108033816Y-83401000D01*
X107866184Y-83401000D01*
X107701772Y-83368297D01*
X107546900Y-83304147D01*
X107407519Y-83211015D01*
X107288985Y-83092481D01*
X107195853Y-82953100D01*
X107131703Y-82798228D01*
X107099000Y-82633816D01*
X107099000Y-82466184D01*
X107131703Y-82301772D01*
X107195853Y-82146900D01*
X107288985Y-82007519D01*
X107407519Y-81888985D01*
X107546900Y-81795853D01*
X107701772Y-81731703D01*
X107866184Y-81699000D01*
X108033816Y-81699000D01*
X108198228Y-81731703D01*
G37*
G36*
X123438228Y-79191703D02*
G01*
X123593100Y-79255853D01*
X123732481Y-79348985D01*
X123851015Y-79467519D01*
X123944147Y-79606900D01*
X124008297Y-79761772D01*
X124041000Y-79926184D01*
X124041000Y-80093816D01*
X124008297Y-80258228D01*
X123944147Y-80413100D01*
X123851015Y-80552481D01*
X123732481Y-80671015D01*
X123593100Y-80764147D01*
X123438228Y-80828297D01*
X123273816Y-80861000D01*
X123106184Y-80861000D01*
X122941772Y-80828297D01*
X122786900Y-80764147D01*
X122647519Y-80671015D01*
X122528985Y-80552481D01*
X122435853Y-80413100D01*
X122371703Y-80258228D01*
X122339000Y-80093816D01*
X122339000Y-79926184D01*
X122371703Y-79761772D01*
X122435853Y-79606900D01*
X122528985Y-79467519D01*
X122647519Y-79348985D01*
X122786900Y-79255853D01*
X122941772Y-79191703D01*
X123106184Y-79159000D01*
X123273816Y-79159000D01*
X123438228Y-79191703D01*
G37*
G36*
X108801000Y-80861000D02*
G01*
X107099000Y-80861000D01*
X107099000Y-79159000D01*
X108801000Y-79159000D01*
X108801000Y-80861000D01*
G37*
G36*
X100798412Y-73845135D02*
G01*
X101030346Y-73891269D01*
X101467300Y-74072262D01*
X101860548Y-74335022D01*
X102194978Y-74669452D01*
X102457738Y-75062700D01*
X102638731Y-75499654D01*
X102731000Y-75963522D01*
X102731000Y-76436478D01*
X102638731Y-76900346D01*
X102457738Y-77337300D01*
X102194978Y-77730548D01*
X101860548Y-78064978D01*
X101467300Y-78327738D01*
X101030346Y-78508731D01*
X100798412Y-78554866D01*
X100566479Y-78601000D01*
X100093521Y-78601000D01*
X99861588Y-78554866D01*
X99629654Y-78508731D01*
X99192700Y-78327738D01*
X98799452Y-78064978D01*
X98465022Y-77730548D01*
X98202262Y-77337300D01*
X98021269Y-76900346D01*
X97929000Y-76436478D01*
X97929000Y-75963522D01*
X98021269Y-75499654D01*
X98202262Y-75062700D01*
X98465022Y-74669452D01*
X98799452Y-74335022D01*
X99192700Y-74072262D01*
X99629654Y-73891269D01*
X99861588Y-73845135D01*
X100093521Y-73799000D01*
X100566479Y-73799000D01*
X100798412Y-73845135D01*
G37*
G36*
X169378412Y-73845135D02*
G01*
X169610346Y-73891269D01*
X170047300Y-74072262D01*
X170440548Y-74335022D01*
X170774978Y-74669452D01*
X171037738Y-75062700D01*
X171218731Y-75499654D01*
X171311000Y-75963522D01*
X171311000Y-76436478D01*
X171218731Y-76900346D01*
X171037738Y-77337300D01*
X170774978Y-77730548D01*
X170440548Y-78064978D01*
X170047300Y-78327738D01*
X169610346Y-78508731D01*
X169378412Y-78554866D01*
X169146479Y-78601000D01*
X168673521Y-78601000D01*
X168441588Y-78554866D01*
X168209654Y-78508731D01*
X167772700Y-78327738D01*
X167379452Y-78064978D01*
X167045022Y-77730548D01*
X166782262Y-77337300D01*
X166601269Y-76900346D01*
X166509000Y-76436478D01*
X166509000Y-75963522D01*
X166601269Y-75499654D01*
X166782262Y-75062700D01*
X167045022Y-74669452D01*
X167379452Y-74335022D01*
X167772700Y-74072262D01*
X168209654Y-73891269D01*
X168441588Y-73845135D01*
X168673521Y-73799000D01*
X169146479Y-73799000D01*
X169378412Y-73845135D01*
G37*
G36*
X148838228Y-76651703D02*
G01*
X148993100Y-76715853D01*
X149132481Y-76808985D01*
X149251015Y-76927519D01*
X149344147Y-77066900D01*
X149408297Y-77221772D01*
X149441000Y-77386184D01*
X149441000Y-77553816D01*
X149408297Y-77718228D01*
X149344147Y-77873100D01*
X149251015Y-78012481D01*
X149132481Y-78131015D01*
X148993100Y-78224147D01*
X148838228Y-78288297D01*
X148673816Y-78321000D01*
X148506184Y-78321000D01*
X148341772Y-78288297D01*
X148186900Y-78224147D01*
X148047519Y-78131015D01*
X147928985Y-78012481D01*
X147835853Y-77873100D01*
X147771703Y-77718228D01*
X147739000Y-77553816D01*
X147739000Y-77386184D01*
X147771703Y-77221772D01*
X147835853Y-77066900D01*
X147928985Y-76927519D01*
X148047519Y-76808985D01*
X148186900Y-76715853D01*
X148341772Y-76651703D01*
X148506184Y-76619000D01*
X148673816Y-76619000D01*
X148838228Y-76651703D01*
G37*
G36*
X146298228Y-76651703D02*
G01*
X146453100Y-76715853D01*
X146592481Y-76808985D01*
X146711015Y-76927519D01*
X146804147Y-77066900D01*
X146868297Y-77221772D01*
X146901000Y-77386184D01*
X146901000Y-77553816D01*
X146868297Y-77718228D01*
X146804147Y-77873100D01*
X146711015Y-78012481D01*
X146592481Y-78131015D01*
X146453100Y-78224147D01*
X146298228Y-78288297D01*
X146133816Y-78321000D01*
X145966184Y-78321000D01*
X145801772Y-78288297D01*
X145646900Y-78224147D01*
X145507519Y-78131015D01*
X145388985Y-78012481D01*
X145295853Y-77873100D01*
X145231703Y-77718228D01*
X145199000Y-77553816D01*
X145199000Y-77386184D01*
X145231703Y-77221772D01*
X145295853Y-77066900D01*
X145388985Y-76927519D01*
X145507519Y-76808985D01*
X145646900Y-76715853D01*
X145801772Y-76651703D01*
X145966184Y-76619000D01*
X146133816Y-76619000D01*
X146298228Y-76651703D01*
G37*
G36*
X153918228Y-76651703D02*
G01*
X154073100Y-76715853D01*
X154212481Y-76808985D01*
X154331015Y-76927519D01*
X154424147Y-77066900D01*
X154488297Y-77221772D01*
X154521000Y-77386184D01*
X154521000Y-77553816D01*
X154488297Y-77718228D01*
X154424147Y-77873100D01*
X154331015Y-78012481D01*
X154212481Y-78131015D01*
X154073100Y-78224147D01*
X153918228Y-78288297D01*
X153753816Y-78321000D01*
X153586184Y-78321000D01*
X153421772Y-78288297D01*
X153266900Y-78224147D01*
X153127519Y-78131015D01*
X153008985Y-78012481D01*
X152915853Y-77873100D01*
X152851703Y-77718228D01*
X152819000Y-77553816D01*
X152819000Y-77386184D01*
X152851703Y-77221772D01*
X152915853Y-77066900D01*
X153008985Y-76927519D01*
X153127519Y-76808985D01*
X153266900Y-76715853D01*
X153421772Y-76651703D01*
X153586184Y-76619000D01*
X153753816Y-76619000D01*
X153918228Y-76651703D01*
G37*
G36*
X156458228Y-76651703D02*
G01*
X156613100Y-76715853D01*
X156752481Y-76808985D01*
X156871015Y-76927519D01*
X156964147Y-77066900D01*
X157028297Y-77221772D01*
X157061000Y-77386184D01*
X157061000Y-77553816D01*
X157028297Y-77718228D01*
X156964147Y-77873100D01*
X156871015Y-78012481D01*
X156752481Y-78131015D01*
X156613100Y-78224147D01*
X156458228Y-78288297D01*
X156293816Y-78321000D01*
X156126184Y-78321000D01*
X155961772Y-78288297D01*
X155806900Y-78224147D01*
X155667519Y-78131015D01*
X155548985Y-78012481D01*
X155455853Y-77873100D01*
X155391703Y-77718228D01*
X155359000Y-77553816D01*
X155359000Y-77386184D01*
X155391703Y-77221772D01*
X155455853Y-77066900D01*
X155548985Y-76927519D01*
X155667519Y-76808985D01*
X155806900Y-76715853D01*
X155961772Y-76651703D01*
X156126184Y-76619000D01*
X156293816Y-76619000D01*
X156458228Y-76651703D01*
G37*
G36*
X151378228Y-76651703D02*
G01*
X151533100Y-76715853D01*
X151672481Y-76808985D01*
X151791015Y-76927519D01*
X151884147Y-77066900D01*
X151948297Y-77221772D01*
X151981000Y-77386184D01*
X151981000Y-77553816D01*
X151948297Y-77718228D01*
X151884147Y-77873100D01*
X151791015Y-78012481D01*
X151672481Y-78131015D01*
X151533100Y-78224147D01*
X151378228Y-78288297D01*
X151213816Y-78321000D01*
X151046184Y-78321000D01*
X150881772Y-78288297D01*
X150726900Y-78224147D01*
X150587519Y-78131015D01*
X150468985Y-78012481D01*
X150375853Y-77873100D01*
X150311703Y-77718228D01*
X150279000Y-77553816D01*
X150279000Y-77386184D01*
X150311703Y-77221772D01*
X150375853Y-77066900D01*
X150468985Y-76927519D01*
X150587519Y-76808985D01*
X150726900Y-76715853D01*
X150881772Y-76651703D01*
X151046184Y-76619000D01*
X151213816Y-76619000D01*
X151378228Y-76651703D01*
G37*
G36*
X143758228Y-76651703D02*
G01*
X143913100Y-76715853D01*
X144052481Y-76808985D01*
X144171015Y-76927519D01*
X144264147Y-77066900D01*
X144328297Y-77221772D01*
X144361000Y-77386184D01*
X144361000Y-77553816D01*
X144328297Y-77718228D01*
X144264147Y-77873100D01*
X144171015Y-78012481D01*
X144052481Y-78131015D01*
X143913100Y-78224147D01*
X143758228Y-78288297D01*
X143593816Y-78321000D01*
X143426184Y-78321000D01*
X143261772Y-78288297D01*
X143106900Y-78224147D01*
X142967519Y-78131015D01*
X142848985Y-78012481D01*
X142755853Y-77873100D01*
X142691703Y-77718228D01*
X142659000Y-77553816D01*
X142659000Y-77386184D01*
X142691703Y-77221772D01*
X142755853Y-77066900D01*
X142848985Y-76927519D01*
X142967519Y-76808985D01*
X143106900Y-76715853D01*
X143261772Y-76651703D01*
X143426184Y-76619000D01*
X143593816Y-76619000D01*
X143758228Y-76651703D01*
G37*
G36*
X141218228Y-76651703D02*
G01*
X141373100Y-76715853D01*
X141512481Y-76808985D01*
X141631015Y-76927519D01*
X141724147Y-77066900D01*
X141788297Y-77221772D01*
X141821000Y-77386184D01*
X141821000Y-77553816D01*
X141788297Y-77718228D01*
X141724147Y-77873100D01*
X141631015Y-78012481D01*
X141512481Y-78131015D01*
X141373100Y-78224147D01*
X141218228Y-78288297D01*
X141053816Y-78321000D01*
X140886184Y-78321000D01*
X140721772Y-78288297D01*
X140566900Y-78224147D01*
X140427519Y-78131015D01*
X140308985Y-78012481D01*
X140215853Y-77873100D01*
X140151703Y-77718228D01*
X140119000Y-77553816D01*
X140119000Y-77386184D01*
X140151703Y-77221772D01*
X140215853Y-77066900D01*
X140308985Y-76927519D01*
X140427519Y-76808985D01*
X140566900Y-76715853D01*
X140721772Y-76651703D01*
X140886184Y-76619000D01*
X141053816Y-76619000D01*
X141218228Y-76651703D01*
G37*
G36*
X138678228Y-76651703D02*
G01*
X138833100Y-76715853D01*
X138972481Y-76808985D01*
X139091015Y-76927519D01*
X139184147Y-77066900D01*
X139248297Y-77221772D01*
X139281000Y-77386184D01*
X139281000Y-77553816D01*
X139248297Y-77718228D01*
X139184147Y-77873100D01*
X139091015Y-78012481D01*
X138972481Y-78131015D01*
X138833100Y-78224147D01*
X138678228Y-78288297D01*
X138513816Y-78321000D01*
X138346184Y-78321000D01*
X138181772Y-78288297D01*
X138026900Y-78224147D01*
X137887519Y-78131015D01*
X137768985Y-78012481D01*
X137675853Y-77873100D01*
X137611703Y-77718228D01*
X137579000Y-77553816D01*
X137579000Y-77386184D01*
X137611703Y-77221772D01*
X137675853Y-77066900D01*
X137768985Y-76927519D01*
X137887519Y-76808985D01*
X138026900Y-76715853D01*
X138181772Y-76651703D01*
X138346184Y-76619000D01*
X138513816Y-76619000D01*
X138678228Y-76651703D01*
G37*
M02*
