G04 #@! TF.GenerationSoftware,KiCad,Pcbnew,(5.1.5)-3*
G04 #@! TF.CreationDate,2020-04-04T21:06:30+02:00*
G04 #@! TF.ProjectId,BuzzDuino,42757a7a-4475-4696-9e6f-2e6b69636164,rev?*
G04 #@! TF.SameCoordinates,Original*
G04 #@! TF.FileFunction,Copper,L2,Bot*
G04 #@! TF.FilePolarity,Positive*
%FSLAX46Y46*%
G04 Gerber Fmt 4.6, Leading zero omitted, Abs format (unit mm)*
G04 Created by KiCad (PCBNEW (5.1.5)-3) date 2020-04-04 21:06:30*
%MOMM*%
%LPD*%
G04 APERTURE LIST*
%ADD10O,1.600000X1.600000*%
%ADD11R,1.600000X1.600000*%
%ADD12C,1.600000*%
%ADD13O,1.700000X1.700000*%
%ADD14R,1.700000X1.700000*%
%ADD15C,2.000000*%
%ADD16R,2.000000X2.000000*%
%ADD17C,1.800000*%
%ADD18R,1.800000X1.800000*%
%ADD19C,0.250000*%
G04 APERTURE END LIST*
D10*
X138430000Y-77470000D03*
X156210000Y-85090000D03*
X140970000Y-77470000D03*
X153670000Y-85090000D03*
X143510000Y-77470000D03*
X151130000Y-85090000D03*
X146050000Y-77470000D03*
X148590000Y-85090000D03*
X148590000Y-77470000D03*
X146050000Y-85090000D03*
X151130000Y-77470000D03*
X143510000Y-85090000D03*
X153670000Y-77470000D03*
X140970000Y-85090000D03*
X156210000Y-77470000D03*
D11*
X138430000Y-85090000D03*
D10*
X128270000Y-109220000D03*
D12*
X128270000Y-119380000D03*
D10*
X101600000Y-115570000D03*
D12*
X101600000Y-105410000D03*
D13*
X101600000Y-99060000D03*
D14*
X101600000Y-96520000D03*
D13*
X101600000Y-87630000D03*
D14*
X101600000Y-85090000D03*
D10*
X123190000Y-115570000D03*
X107950000Y-115570000D03*
X123190000Y-80010000D03*
X107950000Y-113030000D03*
X123190000Y-82550000D03*
X107950000Y-110490000D03*
X123190000Y-85090000D03*
X107950000Y-107950000D03*
X123190000Y-87630000D03*
X107950000Y-105410000D03*
X123190000Y-90170000D03*
X107950000Y-102870000D03*
X123190000Y-92710000D03*
X107950000Y-100330000D03*
X123190000Y-95250000D03*
X107950000Y-97790000D03*
X123190000Y-97790000D03*
X107950000Y-95250000D03*
X123190000Y-100330000D03*
X107950000Y-92710000D03*
X123190000Y-102870000D03*
X107950000Y-90170000D03*
X123190000Y-105410000D03*
X107950000Y-87630000D03*
X123190000Y-107950000D03*
X107950000Y-85090000D03*
X123190000Y-110490000D03*
X107950000Y-82550000D03*
X123190000Y-113030000D03*
D11*
X107950000Y-80010000D03*
D10*
X160020000Y-90170000D03*
D12*
X160020000Y-100330000D03*
D15*
X157480000Y-118090000D03*
D16*
X157480000Y-110490000D03*
D12*
X146050000Y-110490000D03*
X146050000Y-113030000D03*
X146050000Y-115570000D03*
X146050000Y-118110000D03*
X146050000Y-120650000D03*
X140970000Y-120650000D03*
X140970000Y-118110000D03*
X140970000Y-115570000D03*
X140970000Y-113030000D03*
D11*
X140970000Y-110490000D03*
D10*
X154940000Y-90170000D03*
D12*
X154940000Y-100330000D03*
D10*
X149860000Y-90170000D03*
D12*
X149860000Y-100330000D03*
D10*
X144780000Y-90170000D03*
D12*
X144780000Y-100330000D03*
D10*
X139700000Y-90170000D03*
D12*
X139700000Y-100330000D03*
D10*
X134620000Y-90170000D03*
D12*
X134620000Y-100330000D03*
D10*
X129540000Y-90170000D03*
D12*
X129540000Y-100330000D03*
D10*
X165100000Y-90170000D03*
D12*
X165100000Y-100330000D03*
D17*
X132080000Y-110490000D03*
D18*
X134620000Y-110490000D03*
D17*
X132080000Y-119380000D03*
D18*
X134620000Y-119380000D03*
D19*
X116840000Y-73660000D02*
X106680000Y-73660000D01*
X105410000Y-83820000D02*
X104140000Y-85090000D01*
X104140000Y-85090000D02*
X101600000Y-85090000D01*
X123190000Y-80010000D02*
X116840000Y-73660000D01*
X106680000Y-73660000D02*
X105410000Y-74930000D01*
X105410000Y-74930000D02*
X105410000Y-83820000D01*
X134620000Y-110490000D02*
X140970000Y-110490000D01*
X156210000Y-85090000D02*
X163830000Y-85090000D01*
X163830000Y-85090000D02*
X167640000Y-88900000D01*
X167640000Y-88900000D02*
X167640000Y-101600000D01*
X167640000Y-101600000D02*
X162560000Y-106680000D01*
X162560000Y-106680000D02*
X154940000Y-106680000D01*
X154940000Y-106680000D02*
X153670000Y-107950000D01*
X153670000Y-107950000D02*
X153670000Y-116840000D01*
X153670000Y-116840000D02*
X154940000Y-118110000D01*
X154960000Y-118090000D02*
X157480000Y-118090000D01*
X154940000Y-118110000D02*
X154960000Y-118090000D01*
X123190000Y-82550000D02*
X125730000Y-82550000D01*
X125730000Y-82550000D02*
X133350000Y-74930000D01*
X143510000Y-74930000D02*
X146050000Y-77470000D01*
X133350000Y-74930000D02*
X143510000Y-74930000D01*
X123190000Y-87630000D02*
X124460000Y-87630000D01*
X134620000Y-77470000D02*
X138430000Y-77470000D01*
X124460000Y-87630000D02*
X134620000Y-77470000D01*
X138430000Y-77470000D02*
X143510000Y-82550000D01*
X143510000Y-82550000D02*
X152400000Y-82550000D01*
X153670000Y-81280000D02*
X153670000Y-77470000D01*
X152400000Y-82550000D02*
X153670000Y-81280000D01*
X160020000Y-110490000D02*
X157480000Y-110490000D01*
X161290000Y-121920000D02*
X161290000Y-111760000D01*
X160020000Y-123190000D02*
X161290000Y-121920000D01*
X110490000Y-105410000D02*
X113030000Y-107950000D01*
X107950000Y-105410000D02*
X110490000Y-105410000D01*
X161290000Y-111760000D02*
X160020000Y-110490000D01*
X113030000Y-121920000D02*
X114300000Y-123190000D01*
X113030000Y-107950000D02*
X113030000Y-121920000D01*
X114300000Y-123190000D02*
X160020000Y-123190000D01*
X111760000Y-124460000D02*
X161290000Y-124460000D01*
X107950000Y-95250000D02*
X105410000Y-97790000D01*
X105410000Y-97790000D02*
X105410000Y-118110000D01*
X161290000Y-124460000D02*
X165100000Y-120650000D01*
X105410000Y-118110000D02*
X111760000Y-124460000D01*
X165100000Y-120650000D02*
X165100000Y-106680000D01*
X161290000Y-77470000D02*
X158750000Y-74930000D01*
X170180000Y-101600000D02*
X170180000Y-88900000D01*
X165100000Y-106680000D02*
X170180000Y-101600000D01*
X170180000Y-88900000D02*
X161290000Y-80010000D01*
X161290000Y-80010000D02*
X161290000Y-77470000D01*
X158750000Y-74930000D02*
X152400000Y-74930000D01*
X152400000Y-74930000D02*
X151130000Y-76200000D01*
X151130000Y-76200000D02*
X151130000Y-77470000D01*
X107950000Y-87630000D02*
X101600000Y-87630000D01*
X146050000Y-113030000D02*
X144780000Y-113030000D01*
X144780000Y-113030000D02*
X143510000Y-111760000D01*
X143510000Y-111760000D02*
X143510000Y-106680000D01*
X143510000Y-106680000D02*
X140970000Y-104140000D01*
X140970000Y-104140000D02*
X130810000Y-104140000D01*
X129540000Y-102870000D02*
X129540000Y-100330000D01*
X130810000Y-104140000D02*
X129540000Y-102870000D01*
X134620000Y-100330000D02*
X134620000Y-101600000D01*
X134620000Y-101600000D02*
X135890000Y-102870000D01*
X135890000Y-102870000D02*
X147320000Y-102870000D01*
X147320000Y-102870000D02*
X149860000Y-105410000D01*
X149860000Y-105410000D02*
X149860000Y-114300000D01*
X148590000Y-115570000D02*
X146050000Y-115570000D01*
X149860000Y-114300000D02*
X148590000Y-115570000D01*
X160020000Y-102870000D02*
X158750000Y-104140000D01*
X160020000Y-100330000D02*
X160020000Y-102870000D01*
X148590000Y-118110000D02*
X146050000Y-118110000D01*
X151130000Y-115570000D02*
X148590000Y-118110000D01*
X151130000Y-107950000D02*
X151130000Y-115570000D01*
X158750000Y-104140000D02*
X154940000Y-104140000D01*
X154940000Y-104140000D02*
X151130000Y-107950000D01*
M02*
