M48
; DRILL file {KiCad (5.1.5)-3} date 04.04.2020 21:06:32
; FORMAT={-:-/ absolute / inch / decimal}
; #@! TF.CreationDate,2020-04-04T21:06:32+02:00
; #@! TF.GenerationSoftware,Kicad,Pcbnew,(5.1.5)-3
FMAT,2
INCH
T1C0.0315
T2C0.0354
T3C0.0394
T4C0.1063
%
G90
G05
T1
X4.0Y-4.15
X4.0Y-4.55
X5.3Y-3.55
X5.3Y-3.95
X5.1Y-3.55
X5.1Y-3.95
X5.7Y-3.55
X5.7Y-3.95
X6.5Y-3.55
X6.5Y-3.95
X6.3Y-3.55
X6.3Y-3.95
X5.45Y-3.05
X5.45Y-3.35
X5.55Y-3.05
X5.55Y-3.35
X5.65Y-3.05
X5.65Y-3.35
X5.75Y-3.05
X5.75Y-3.35
X5.85Y-3.05
X5.85Y-3.35
X5.95Y-3.05
X5.95Y-3.35
X6.05Y-3.05
X6.05Y-3.35
X6.15Y-3.05
X6.15Y-3.35
X4.25Y-3.15
X4.25Y-3.25
X4.25Y-3.35
X4.25Y-3.45
X4.25Y-3.55
X4.25Y-3.65
X4.25Y-3.75
X4.25Y-3.85
X4.25Y-3.95
X4.25Y-4.05
X4.25Y-4.15
X4.25Y-4.25
X4.25Y-4.35
X4.25Y-4.45
X4.25Y-4.55
X4.85Y-3.15
X4.85Y-3.25
X4.85Y-3.35
X4.85Y-3.45
X4.85Y-3.55
X4.85Y-3.65
X4.85Y-3.75
X4.85Y-3.85
X4.85Y-3.95
X4.85Y-4.05
X4.85Y-4.15
X4.85Y-4.25
X4.85Y-4.35
X4.85Y-4.45
X4.85Y-4.55
X5.5Y-3.55
X5.5Y-3.95
X5.05Y-4.3
X5.05Y-4.7
X5.9Y-3.55
X5.9Y-3.95
X6.1Y-3.55
X6.1Y-3.95
X5.55Y-4.35
X5.55Y-4.45
X5.55Y-4.55
X5.55Y-4.65
X5.55Y-4.75
X5.75Y-4.35
X5.75Y-4.45
X5.75Y-4.55
X5.75Y-4.65
X5.75Y-4.75
T2
X5.2Y-4.35
X5.3Y-4.35
X5.2Y-4.7
X5.3Y-4.7
T3
X4.0Y-3.35
X4.0Y-3.45
X4.0Y-3.8
X4.0Y-3.9
X6.2Y-4.35
X6.2Y-4.6492
T4
X6.65Y-4.8
X3.95Y-3.0
X6.65Y-3.0
X3.95Y-4.8
T0
M30
