G04 #@! TF.GenerationSoftware,KiCad,Pcbnew,(5.1.5)-3*
G04 #@! TF.CreationDate,2020-04-05T07:59:10+02:00*
G04 #@! TF.ProjectId,BuzzDuino,42757a7a-4475-4696-9e6f-2e6b69636164,rev?*
G04 #@! TF.SameCoordinates,Original*
G04 #@! TF.FileFunction,Legend,Top*
G04 #@! TF.FilePolarity,Positive*
%FSLAX46Y46*%
G04 Gerber Fmt 4.6, Leading zero omitted, Abs format (unit mm)*
G04 Created by KiCad (PCBNEW (5.1.5)-3) date 2020-04-05 07:59:10*
%MOMM*%
%LPD*%
G04 APERTURE LIST*
%ADD10C,0.120000*%
%ADD11C,0.150000*%
G04 APERTURE END LIST*
D10*
X137100000Y-78630000D02*
X137100000Y-80280000D01*
X157540000Y-78630000D02*
X137100000Y-78630000D01*
X157540000Y-83930000D02*
X157540000Y-78630000D01*
X137100000Y-83930000D02*
X157540000Y-83930000D01*
X137100000Y-82280000D02*
X137100000Y-83930000D01*
X137100000Y-80280000D02*
G75*
G02X137100000Y-82280000I0J-1000000D01*
G01*
X128270000Y-110260000D02*
X128270000Y-111030000D01*
X128270000Y-118340000D02*
X128270000Y-117570000D01*
X126900000Y-111030000D02*
X126900000Y-117570000D01*
X129640000Y-111030000D02*
X126900000Y-111030000D01*
X129640000Y-117570000D02*
X129640000Y-111030000D01*
X126900000Y-117570000D02*
X129640000Y-117570000D01*
X101600000Y-114530000D02*
X101600000Y-113760000D01*
X101600000Y-106450000D02*
X101600000Y-107220000D01*
X102970000Y-113760000D02*
X102970000Y-107220000D01*
X100230000Y-113760000D02*
X102970000Y-113760000D01*
X100230000Y-107220000D02*
X100230000Y-113760000D01*
X102970000Y-107220000D02*
X100230000Y-107220000D01*
X100270000Y-95190000D02*
X101600000Y-95190000D01*
X100270000Y-96520000D02*
X100270000Y-95190000D01*
X100270000Y-97790000D02*
X102930000Y-97790000D01*
X102930000Y-97790000D02*
X102930000Y-100390000D01*
X100270000Y-97790000D02*
X100270000Y-100390000D01*
X100270000Y-100390000D02*
X102930000Y-100390000D01*
X100270000Y-83760000D02*
X101600000Y-83760000D01*
X100270000Y-85090000D02*
X100270000Y-83760000D01*
X100270000Y-86360000D02*
X102930000Y-86360000D01*
X102930000Y-86360000D02*
X102930000Y-88960000D01*
X100270000Y-86360000D02*
X100270000Y-88960000D01*
X100270000Y-88960000D02*
X102930000Y-88960000D01*
X124590000Y-76070000D02*
X106550000Y-76070000D01*
X124590000Y-119510000D02*
X124590000Y-76070000D01*
X106550000Y-119510000D02*
X124590000Y-119510000D01*
X109220000Y-116840000D02*
X106550000Y-116840000D01*
X109220000Y-81280000D02*
X109220000Y-116840000D01*
X109220000Y-81280000D02*
X106550000Y-81280000D01*
X121920000Y-116840000D02*
X124590000Y-116840000D01*
X121920000Y-78740000D02*
X121920000Y-116840000D01*
X121920000Y-78740000D02*
X124590000Y-78740000D01*
X106550000Y-76070000D02*
X106550000Y-78740000D01*
X106550000Y-81280000D02*
X106550000Y-119510000D01*
X109220000Y-78740000D02*
X106550000Y-78740000D01*
X109220000Y-81280000D02*
X109220000Y-78740000D01*
X160020000Y-91210000D02*
X160020000Y-91980000D01*
X160020000Y-99290000D02*
X160020000Y-98520000D01*
X158650000Y-91980000D02*
X158650000Y-98520000D01*
X161390000Y-91980000D02*
X158650000Y-91980000D01*
X161390000Y-98520000D02*
X161390000Y-91980000D01*
X158650000Y-98520000D02*
X161390000Y-98520000D01*
X163580000Y-114290000D02*
G75*
G03X163580000Y-114290000I-6100000J0D01*
G01*
X139340000Y-108860000D02*
X140970000Y-108860000D01*
X139340000Y-110490000D02*
X139340000Y-108860000D01*
D11*
X147320000Y-121920000D02*
X147320000Y-109220000D01*
X139700000Y-121920000D02*
X147320000Y-121920000D01*
X139700000Y-109220000D02*
X139700000Y-121920000D01*
X147320000Y-109220000D02*
X139700000Y-109220000D01*
D10*
X154940000Y-91210000D02*
X154940000Y-91980000D01*
X154940000Y-99290000D02*
X154940000Y-98520000D01*
X153570000Y-91980000D02*
X153570000Y-98520000D01*
X156310000Y-91980000D02*
X153570000Y-91980000D01*
X156310000Y-98520000D02*
X156310000Y-91980000D01*
X153570000Y-98520000D02*
X156310000Y-98520000D01*
X149860000Y-91210000D02*
X149860000Y-91980000D01*
X149860000Y-99290000D02*
X149860000Y-98520000D01*
X148490000Y-91980000D02*
X148490000Y-98520000D01*
X151230000Y-91980000D02*
X148490000Y-91980000D01*
X151230000Y-98520000D02*
X151230000Y-91980000D01*
X148490000Y-98520000D02*
X151230000Y-98520000D01*
X144780000Y-91210000D02*
X144780000Y-91980000D01*
X144780000Y-99290000D02*
X144780000Y-98520000D01*
X143410000Y-91980000D02*
X143410000Y-98520000D01*
X146150000Y-91980000D02*
X143410000Y-91980000D01*
X146150000Y-98520000D02*
X146150000Y-91980000D01*
X143410000Y-98520000D02*
X146150000Y-98520000D01*
X139700000Y-91210000D02*
X139700000Y-91980000D01*
X139700000Y-99290000D02*
X139700000Y-98520000D01*
X138330000Y-91980000D02*
X138330000Y-98520000D01*
X141070000Y-91980000D02*
X138330000Y-91980000D01*
X141070000Y-98520000D02*
X141070000Y-91980000D01*
X138330000Y-98520000D02*
X141070000Y-98520000D01*
X134620000Y-91210000D02*
X134620000Y-91980000D01*
X134620000Y-99290000D02*
X134620000Y-98520000D01*
X133250000Y-91980000D02*
X133250000Y-98520000D01*
X135990000Y-91980000D02*
X133250000Y-91980000D01*
X135990000Y-98520000D02*
X135990000Y-91980000D01*
X133250000Y-98520000D02*
X135990000Y-98520000D01*
X129540000Y-91210000D02*
X129540000Y-91980000D01*
X129540000Y-99290000D02*
X129540000Y-98520000D01*
X128170000Y-91980000D02*
X128170000Y-98520000D01*
X130910000Y-91980000D02*
X128170000Y-91980000D01*
X130910000Y-98520000D02*
X130910000Y-91980000D01*
X128170000Y-98520000D02*
X130910000Y-98520000D01*
X165100000Y-91210000D02*
X165100000Y-91980000D01*
X165100000Y-99290000D02*
X165100000Y-98520000D01*
X163730000Y-91980000D02*
X163730000Y-98520000D01*
X166470000Y-91980000D02*
X163730000Y-91980000D01*
X166470000Y-98520000D02*
X166470000Y-91980000D01*
X163730000Y-98520000D02*
X166470000Y-98520000D01*
X135910000Y-112035000D02*
X135910000Y-108945000D01*
X135850000Y-110490000D02*
G75*
G03X135850000Y-110490000I-2500000J0D01*
G01*
X130360000Y-110490462D02*
G75*
G02X135910000Y-108945170I2990000J462D01*
G01*
X130360000Y-110489538D02*
G75*
G03X135910000Y-112034830I2990000J-462D01*
G01*
X135910000Y-120925000D02*
X135910000Y-117835000D01*
X135850000Y-119380000D02*
G75*
G03X135850000Y-119380000I-2500000J0D01*
G01*
X130360000Y-119380462D02*
G75*
G02X135910000Y-117835170I2990000J462D01*
G01*
X130360000Y-119379538D02*
G75*
G03X135910000Y-120924830I2990000J-462D01*
G01*
D11*
X144058095Y-80732380D02*
X144724761Y-80732380D01*
X144296190Y-81732380D01*
X145534285Y-81065714D02*
X145534285Y-81732380D01*
X145296190Y-80684761D02*
X145058095Y-81399047D01*
X145677142Y-81399047D01*
X146058095Y-81732380D02*
X146058095Y-80732380D01*
X146058095Y-81208571D02*
X146629523Y-81208571D01*
X146629523Y-81732380D02*
X146629523Y-80732380D01*
X147677142Y-81637142D02*
X147629523Y-81684761D01*
X147486666Y-81732380D01*
X147391428Y-81732380D01*
X147248571Y-81684761D01*
X147153333Y-81589523D01*
X147105714Y-81494285D01*
X147058095Y-81303809D01*
X147058095Y-81160952D01*
X147105714Y-80970476D01*
X147153333Y-80875238D01*
X147248571Y-80780000D01*
X147391428Y-80732380D01*
X147486666Y-80732380D01*
X147629523Y-80780000D01*
X147677142Y-80827619D01*
X148581904Y-80732380D02*
X148105714Y-80732380D01*
X148058095Y-81208571D01*
X148105714Y-81160952D01*
X148200952Y-81113333D01*
X148439047Y-81113333D01*
X148534285Y-81160952D01*
X148581904Y-81208571D01*
X148629523Y-81303809D01*
X148629523Y-81541904D01*
X148581904Y-81637142D01*
X148534285Y-81684761D01*
X148439047Y-81732380D01*
X148200952Y-81732380D01*
X148105714Y-81684761D01*
X148058095Y-81637142D01*
X149105714Y-81732380D02*
X149296190Y-81732380D01*
X149391428Y-81684761D01*
X149439047Y-81637142D01*
X149534285Y-81494285D01*
X149581904Y-81303809D01*
X149581904Y-80922857D01*
X149534285Y-80827619D01*
X149486666Y-80780000D01*
X149391428Y-80732380D01*
X149200952Y-80732380D01*
X149105714Y-80780000D01*
X149058095Y-80827619D01*
X149010476Y-80922857D01*
X149010476Y-81160952D01*
X149058095Y-81256190D01*
X149105714Y-81303809D01*
X149200952Y-81351428D01*
X149391428Y-81351428D01*
X149486666Y-81303809D01*
X149534285Y-81256190D01*
X149581904Y-81160952D01*
X150486666Y-80732380D02*
X150010476Y-80732380D01*
X149962857Y-81208571D01*
X150010476Y-81160952D01*
X150105714Y-81113333D01*
X150343809Y-81113333D01*
X150439047Y-81160952D01*
X150486666Y-81208571D01*
X150534285Y-81303809D01*
X150534285Y-81541904D01*
X150486666Y-81637142D01*
X150439047Y-81684761D01*
X150343809Y-81732380D01*
X150105714Y-81732380D01*
X150010476Y-81684761D01*
X149962857Y-81637142D01*
X128115714Y-115633333D02*
X128782380Y-115633333D01*
X127734761Y-115871428D02*
X128449047Y-116109523D01*
X128449047Y-115490476D01*
X127782380Y-115204761D02*
X127782380Y-114538095D01*
X128782380Y-114966666D01*
X127782380Y-113966666D02*
X127782380Y-113871428D01*
X127830000Y-113776190D01*
X127877619Y-113728571D01*
X127972857Y-113680952D01*
X128163333Y-113633333D01*
X128401428Y-113633333D01*
X128591904Y-113680952D01*
X128687142Y-113728571D01*
X128734761Y-113776190D01*
X128782380Y-113871428D01*
X128782380Y-113966666D01*
X128734761Y-114061904D01*
X128687142Y-114109523D01*
X128591904Y-114157142D01*
X128401428Y-114204761D01*
X128163333Y-114204761D01*
X127972857Y-114157142D01*
X127877619Y-114109523D01*
X127830000Y-114061904D01*
X127782380Y-113966666D01*
X128782380Y-113252380D02*
X128782380Y-113014285D01*
X128591904Y-113014285D01*
X128544285Y-113109523D01*
X128449047Y-113204761D01*
X128306190Y-113252380D01*
X128068095Y-113252380D01*
X127925238Y-113204761D01*
X127830000Y-113109523D01*
X127782380Y-112966666D01*
X127782380Y-112776190D01*
X127830000Y-112633333D01*
X127925238Y-112538095D01*
X128068095Y-112490476D01*
X128306190Y-112490476D01*
X128449047Y-112538095D01*
X128544285Y-112633333D01*
X128591904Y-112728571D01*
X128782380Y-112728571D01*
X128782380Y-112490476D01*
X101385714Y-111823333D02*
X102052380Y-111823333D01*
X101004761Y-112061428D02*
X101719047Y-112299523D01*
X101719047Y-111680476D01*
X101052380Y-111394761D02*
X101052380Y-110728095D01*
X102052380Y-111156666D01*
X101052380Y-110156666D02*
X101052380Y-110061428D01*
X101100000Y-109966190D01*
X101147619Y-109918571D01*
X101242857Y-109870952D01*
X101433333Y-109823333D01*
X101671428Y-109823333D01*
X101861904Y-109870952D01*
X101957142Y-109918571D01*
X102004761Y-109966190D01*
X102052380Y-110061428D01*
X102052380Y-110156666D01*
X102004761Y-110251904D01*
X101957142Y-110299523D01*
X101861904Y-110347142D01*
X101671428Y-110394761D01*
X101433333Y-110394761D01*
X101242857Y-110347142D01*
X101147619Y-110299523D01*
X101100000Y-110251904D01*
X101052380Y-110156666D01*
X102052380Y-109442380D02*
X102052380Y-109204285D01*
X101861904Y-109204285D01*
X101814285Y-109299523D01*
X101719047Y-109394761D01*
X101576190Y-109442380D01*
X101338095Y-109442380D01*
X101195238Y-109394761D01*
X101100000Y-109299523D01*
X101052380Y-109156666D01*
X101052380Y-108966190D01*
X101100000Y-108823333D01*
X101195238Y-108728095D01*
X101338095Y-108680476D01*
X101576190Y-108680476D01*
X101719047Y-108728095D01*
X101814285Y-108823333D01*
X101861904Y-108918571D01*
X102052380Y-108918571D01*
X102052380Y-108680476D01*
X99417142Y-104575714D02*
X99464761Y-104623333D01*
X99512380Y-104766190D01*
X99512380Y-104861428D01*
X99464761Y-105004285D01*
X99369523Y-105099523D01*
X99274285Y-105147142D01*
X99083809Y-105194761D01*
X98940952Y-105194761D01*
X98750476Y-105147142D01*
X98655238Y-105099523D01*
X98560000Y-105004285D01*
X98512380Y-104861428D01*
X98512380Y-104766190D01*
X98560000Y-104623333D01*
X98607619Y-104575714D01*
X99512380Y-104004285D02*
X99464761Y-104099523D01*
X99417142Y-104147142D01*
X99321904Y-104194761D01*
X99036190Y-104194761D01*
X98940952Y-104147142D01*
X98893333Y-104099523D01*
X98845714Y-104004285D01*
X98845714Y-103861428D01*
X98893333Y-103766190D01*
X98940952Y-103718571D01*
X99036190Y-103670952D01*
X99321904Y-103670952D01*
X99417142Y-103718571D01*
X99464761Y-103766190D01*
X99512380Y-103861428D01*
X99512380Y-104004285D01*
X98845714Y-103242380D02*
X99512380Y-103242380D01*
X98940952Y-103242380D02*
X98893333Y-103194761D01*
X98845714Y-103099523D01*
X98845714Y-102956666D01*
X98893333Y-102861428D01*
X98988571Y-102813809D01*
X99512380Y-102813809D01*
X98845714Y-102337619D02*
X99512380Y-102337619D01*
X98940952Y-102337619D02*
X98893333Y-102290000D01*
X98845714Y-102194761D01*
X98845714Y-102051904D01*
X98893333Y-101956666D01*
X98988571Y-101909047D01*
X99512380Y-101909047D01*
X99607619Y-101670952D02*
X99607619Y-100909047D01*
X98512380Y-100480476D02*
X98512380Y-100385238D01*
X98560000Y-100290000D01*
X98607619Y-100242380D01*
X98702857Y-100194761D01*
X98893333Y-100147142D01*
X99131428Y-100147142D01*
X99321904Y-100194761D01*
X99417142Y-100242380D01*
X99464761Y-100290000D01*
X99512380Y-100385238D01*
X99512380Y-100480476D01*
X99464761Y-100575714D01*
X99417142Y-100623333D01*
X99321904Y-100670952D01*
X99131428Y-100718571D01*
X98893333Y-100718571D01*
X98702857Y-100670952D01*
X98607619Y-100623333D01*
X98560000Y-100575714D01*
X98512380Y-100480476D01*
X99512380Y-99194761D02*
X99512380Y-99766190D01*
X99512380Y-99480476D02*
X98512380Y-99480476D01*
X98655238Y-99575714D01*
X98750476Y-99670952D01*
X98798095Y-99766190D01*
X99512380Y-98861428D02*
X98845714Y-98337619D01*
X98845714Y-98861428D02*
X99512380Y-98337619D01*
X98512380Y-97766190D02*
X98512380Y-97670952D01*
X98560000Y-97575714D01*
X98607619Y-97528095D01*
X98702857Y-97480476D01*
X98893333Y-97432857D01*
X99131428Y-97432857D01*
X99321904Y-97480476D01*
X99417142Y-97528095D01*
X99464761Y-97575714D01*
X99512380Y-97670952D01*
X99512380Y-97766190D01*
X99464761Y-97861428D01*
X99417142Y-97909047D01*
X99321904Y-97956666D01*
X99131428Y-98004285D01*
X98893333Y-98004285D01*
X98702857Y-97956666D01*
X98607619Y-97909047D01*
X98560000Y-97861428D01*
X98512380Y-97766190D01*
X98607619Y-97051904D02*
X98560000Y-97004285D01*
X98512380Y-96909047D01*
X98512380Y-96670952D01*
X98560000Y-96575714D01*
X98607619Y-96528095D01*
X98702857Y-96480476D01*
X98798095Y-96480476D01*
X98940952Y-96528095D01*
X99512380Y-97099523D01*
X99512380Y-96480476D01*
X99607619Y-96290000D02*
X99607619Y-95528095D01*
X98988571Y-94956666D02*
X98988571Y-95290000D01*
X99512380Y-95290000D02*
X98512380Y-95290000D01*
X98512380Y-94813809D01*
X99464761Y-94051904D02*
X99512380Y-94147142D01*
X99512380Y-94337619D01*
X99464761Y-94432857D01*
X99369523Y-94480476D01*
X98988571Y-94480476D01*
X98893333Y-94432857D01*
X98845714Y-94337619D01*
X98845714Y-94147142D01*
X98893333Y-94051904D01*
X98988571Y-94004285D01*
X99083809Y-94004285D01*
X99179047Y-94480476D01*
X99512380Y-93575714D02*
X98845714Y-93575714D01*
X98940952Y-93575714D02*
X98893333Y-93528095D01*
X98845714Y-93432857D01*
X98845714Y-93290000D01*
X98893333Y-93194761D01*
X98988571Y-93147142D01*
X99512380Y-93147142D01*
X98988571Y-93147142D02*
X98893333Y-93099523D01*
X98845714Y-93004285D01*
X98845714Y-92861428D01*
X98893333Y-92766190D01*
X98988571Y-92718571D01*
X99512380Y-92718571D01*
X99512380Y-91813809D02*
X98988571Y-91813809D01*
X98893333Y-91861428D01*
X98845714Y-91956666D01*
X98845714Y-92147142D01*
X98893333Y-92242380D01*
X99464761Y-91813809D02*
X99512380Y-91909047D01*
X99512380Y-92147142D01*
X99464761Y-92242380D01*
X99369523Y-92290000D01*
X99274285Y-92290000D01*
X99179047Y-92242380D01*
X99131428Y-92147142D01*
X99131428Y-91909047D01*
X99083809Y-91813809D01*
X99512380Y-91194761D02*
X99464761Y-91290000D01*
X99369523Y-91337619D01*
X98512380Y-91337619D01*
X99464761Y-90432857D02*
X99512380Y-90528095D01*
X99512380Y-90718571D01*
X99464761Y-90813809D01*
X99369523Y-90861428D01*
X98988571Y-90861428D01*
X98893333Y-90813809D01*
X98845714Y-90718571D01*
X98845714Y-90528095D01*
X98893333Y-90432857D01*
X98988571Y-90385238D01*
X99083809Y-90385238D01*
X99179047Y-90861428D01*
X100838095Y-89670000D02*
X100742857Y-89622380D01*
X100600000Y-89622380D01*
X100457142Y-89670000D01*
X100361904Y-89765238D01*
X100314285Y-89860476D01*
X100266666Y-90050952D01*
X100266666Y-90193809D01*
X100314285Y-90384285D01*
X100361904Y-90479523D01*
X100457142Y-90574761D01*
X100600000Y-90622380D01*
X100695238Y-90622380D01*
X100838095Y-90574761D01*
X100885714Y-90527142D01*
X100885714Y-90193809D01*
X100695238Y-90193809D01*
X101314285Y-90622380D02*
X101314285Y-89622380D01*
X101885714Y-90622380D01*
X101885714Y-89622380D01*
X102361904Y-90622380D02*
X102361904Y-89622380D01*
X102600000Y-89622380D01*
X102742857Y-89670000D01*
X102838095Y-89765238D01*
X102885714Y-89860476D01*
X102933333Y-90050952D01*
X102933333Y-90193809D01*
X102885714Y-90384285D01*
X102838095Y-90479523D01*
X102742857Y-90574761D01*
X102600000Y-90622380D01*
X102361904Y-90622380D01*
X100314285Y-82621428D02*
X101076190Y-82621428D01*
X100695238Y-83002380D02*
X100695238Y-82240476D01*
X101600000Y-83002380D02*
X101790476Y-83002380D01*
X101885714Y-82954761D01*
X101933333Y-82907142D01*
X102028571Y-82764285D01*
X102076190Y-82573809D01*
X102076190Y-82192857D01*
X102028571Y-82097619D01*
X101980952Y-82050000D01*
X101885714Y-82002380D01*
X101695238Y-82002380D01*
X101600000Y-82050000D01*
X101552380Y-82097619D01*
X101504761Y-82192857D01*
X101504761Y-82430952D01*
X101552380Y-82526190D01*
X101600000Y-82573809D01*
X101695238Y-82621428D01*
X101885714Y-82621428D01*
X101980952Y-82573809D01*
X102028571Y-82526190D01*
X102076190Y-82430952D01*
X102361904Y-82002380D02*
X102695238Y-83002380D01*
X103028571Y-82002380D01*
X117006666Y-105798095D02*
X117006666Y-105321904D01*
X117292380Y-105893333D02*
X116292380Y-105560000D01*
X117292380Y-105226666D01*
X117292380Y-104893333D02*
X116625714Y-104893333D01*
X116816190Y-104893333D02*
X116720952Y-104845714D01*
X116673333Y-104798095D01*
X116625714Y-104702857D01*
X116625714Y-104607619D01*
X117292380Y-103845714D02*
X116292380Y-103845714D01*
X117244761Y-103845714D02*
X117292380Y-103940952D01*
X117292380Y-104131428D01*
X117244761Y-104226666D01*
X117197142Y-104274285D01*
X117101904Y-104321904D01*
X116816190Y-104321904D01*
X116720952Y-104274285D01*
X116673333Y-104226666D01*
X116625714Y-104131428D01*
X116625714Y-103940952D01*
X116673333Y-103845714D01*
X116625714Y-102940952D02*
X117292380Y-102940952D01*
X116625714Y-103369523D02*
X117149523Y-103369523D01*
X117244761Y-103321904D01*
X117292380Y-103226666D01*
X117292380Y-103083809D01*
X117244761Y-102988571D01*
X117197142Y-102940952D01*
X117292380Y-102464761D02*
X116625714Y-102464761D01*
X116292380Y-102464761D02*
X116340000Y-102512380D01*
X116387619Y-102464761D01*
X116340000Y-102417142D01*
X116292380Y-102464761D01*
X116387619Y-102464761D01*
X116625714Y-101988571D02*
X117292380Y-101988571D01*
X116720952Y-101988571D02*
X116673333Y-101940952D01*
X116625714Y-101845714D01*
X116625714Y-101702857D01*
X116673333Y-101607619D01*
X116768571Y-101560000D01*
X117292380Y-101560000D01*
X117292380Y-100940952D02*
X117244761Y-101036190D01*
X117197142Y-101083809D01*
X117101904Y-101131428D01*
X116816190Y-101131428D01*
X116720952Y-101083809D01*
X116673333Y-101036190D01*
X116625714Y-100940952D01*
X116625714Y-100798095D01*
X116673333Y-100702857D01*
X116720952Y-100655238D01*
X116816190Y-100607619D01*
X117101904Y-100607619D01*
X117197142Y-100655238D01*
X117244761Y-100702857D01*
X117292380Y-100798095D01*
X117292380Y-100940952D01*
X117387619Y-100417142D02*
X117387619Y-99655238D01*
X117292380Y-99417142D02*
X116292380Y-99417142D01*
X117292380Y-98845714D01*
X116292380Y-98845714D01*
X117292380Y-97940952D02*
X116768571Y-97940952D01*
X116673333Y-97988571D01*
X116625714Y-98083809D01*
X116625714Y-98274285D01*
X116673333Y-98369523D01*
X117244761Y-97940952D02*
X117292380Y-98036190D01*
X117292380Y-98274285D01*
X117244761Y-98369523D01*
X117149523Y-98417142D01*
X117054285Y-98417142D01*
X116959047Y-98369523D01*
X116911428Y-98274285D01*
X116911428Y-98036190D01*
X116863809Y-97940952D01*
X116625714Y-97464761D02*
X117292380Y-97464761D01*
X116720952Y-97464761D02*
X116673333Y-97417142D01*
X116625714Y-97321904D01*
X116625714Y-97179047D01*
X116673333Y-97083809D01*
X116768571Y-97036190D01*
X117292380Y-97036190D01*
X117292380Y-96417142D02*
X117244761Y-96512380D01*
X117197142Y-96560000D01*
X117101904Y-96607619D01*
X116816190Y-96607619D01*
X116720952Y-96560000D01*
X116673333Y-96512380D01*
X116625714Y-96417142D01*
X116625714Y-96274285D01*
X116673333Y-96179047D01*
X116720952Y-96131428D01*
X116816190Y-96083809D01*
X117101904Y-96083809D01*
X117197142Y-96131428D01*
X117244761Y-96179047D01*
X117292380Y-96274285D01*
X117292380Y-96417142D01*
X117387619Y-95893333D02*
X117387619Y-95131428D01*
X116625714Y-94988571D02*
X117292380Y-94750476D01*
X116625714Y-94512380D01*
X116292380Y-94226666D02*
X116292380Y-93607619D01*
X116673333Y-93940952D01*
X116673333Y-93798095D01*
X116720952Y-93702857D01*
X116768571Y-93655238D01*
X116863809Y-93607619D01*
X117101904Y-93607619D01*
X117197142Y-93655238D01*
X117244761Y-93702857D01*
X117292380Y-93798095D01*
X117292380Y-94083809D01*
X117244761Y-94179047D01*
X117197142Y-94226666D01*
X117197142Y-93179047D02*
X117244761Y-93131428D01*
X117292380Y-93179047D01*
X117244761Y-93226666D01*
X117197142Y-93179047D01*
X117292380Y-93179047D01*
X117292380Y-92798095D02*
X116625714Y-92274285D01*
X116625714Y-92798095D02*
X117292380Y-92274285D01*
X159805714Y-96583333D02*
X160472380Y-96583333D01*
X159424761Y-96821428D02*
X160139047Y-97059523D01*
X160139047Y-96440476D01*
X159472380Y-96154761D02*
X159472380Y-95488095D01*
X160472380Y-95916666D01*
X159472380Y-94916666D02*
X159472380Y-94821428D01*
X159520000Y-94726190D01*
X159567619Y-94678571D01*
X159662857Y-94630952D01*
X159853333Y-94583333D01*
X160091428Y-94583333D01*
X160281904Y-94630952D01*
X160377142Y-94678571D01*
X160424761Y-94726190D01*
X160472380Y-94821428D01*
X160472380Y-94916666D01*
X160424761Y-95011904D01*
X160377142Y-95059523D01*
X160281904Y-95107142D01*
X160091428Y-95154761D01*
X159853333Y-95154761D01*
X159662857Y-95107142D01*
X159567619Y-95059523D01*
X159520000Y-95011904D01*
X159472380Y-94916666D01*
X160472380Y-94202380D02*
X160472380Y-93964285D01*
X160281904Y-93964285D01*
X160234285Y-94059523D01*
X160139047Y-94154761D01*
X159996190Y-94202380D01*
X159758095Y-94202380D01*
X159615238Y-94154761D01*
X159520000Y-94059523D01*
X159472380Y-93916666D01*
X159472380Y-93726190D01*
X159520000Y-93583333D01*
X159615238Y-93488095D01*
X159758095Y-93440476D01*
X159996190Y-93440476D01*
X160139047Y-93488095D01*
X160234285Y-93583333D01*
X160281904Y-93678571D01*
X160472380Y-93678571D01*
X160472380Y-93440476D01*
X159948571Y-116228571D02*
X159996190Y-116085714D01*
X160043809Y-116038095D01*
X160139047Y-115990476D01*
X160281904Y-115990476D01*
X160377142Y-116038095D01*
X160424761Y-116085714D01*
X160472380Y-116180952D01*
X160472380Y-116561904D01*
X159472380Y-116561904D01*
X159472380Y-116228571D01*
X159520000Y-116133333D01*
X159567619Y-116085714D01*
X159662857Y-116038095D01*
X159758095Y-116038095D01*
X159853333Y-116085714D01*
X159900952Y-116133333D01*
X159948571Y-116228571D01*
X159948571Y-116561904D01*
X159805714Y-115133333D02*
X160472380Y-115133333D01*
X159805714Y-115561904D02*
X160329523Y-115561904D01*
X160424761Y-115514285D01*
X160472380Y-115419047D01*
X160472380Y-115276190D01*
X160424761Y-115180952D01*
X160377142Y-115133333D01*
X159805714Y-114752380D02*
X159805714Y-114228571D01*
X160472380Y-114752380D01*
X160472380Y-114228571D01*
X159805714Y-113942857D02*
X159805714Y-113419047D01*
X160472380Y-113942857D01*
X160472380Y-113419047D01*
X160424761Y-112657142D02*
X160472380Y-112752380D01*
X160472380Y-112942857D01*
X160424761Y-113038095D01*
X160329523Y-113085714D01*
X159948571Y-113085714D01*
X159853333Y-113038095D01*
X159805714Y-112942857D01*
X159805714Y-112752380D01*
X159853333Y-112657142D01*
X159948571Y-112609523D01*
X160043809Y-112609523D01*
X160139047Y-113085714D01*
X160472380Y-112180952D02*
X159805714Y-112180952D01*
X159996190Y-112180952D02*
X159900952Y-112133333D01*
X159853333Y-112085714D01*
X159805714Y-111990476D01*
X159805714Y-111895238D01*
X160091428Y-110860952D02*
X160091428Y-110099047D01*
X160472380Y-110480000D02*
X159710476Y-110480000D01*
X143962380Y-119808095D02*
X142962380Y-119808095D01*
X143438571Y-119808095D02*
X143438571Y-119236666D01*
X143962380Y-119236666D02*
X142962380Y-119236666D01*
X143962380Y-118760476D02*
X142962380Y-118760476D01*
X142962380Y-118522380D01*
X143010000Y-118379523D01*
X143105238Y-118284285D01*
X143200476Y-118236666D01*
X143390952Y-118189047D01*
X143533809Y-118189047D01*
X143724285Y-118236666D01*
X143819523Y-118284285D01*
X143914761Y-118379523D01*
X143962380Y-118522380D01*
X143962380Y-118760476D01*
X143914761Y-117808095D02*
X143962380Y-117665238D01*
X143962380Y-117427142D01*
X143914761Y-117331904D01*
X143867142Y-117284285D01*
X143771904Y-117236666D01*
X143676666Y-117236666D01*
X143581428Y-117284285D01*
X143533809Y-117331904D01*
X143486190Y-117427142D01*
X143438571Y-117617619D01*
X143390952Y-117712857D01*
X143343333Y-117760476D01*
X143248095Y-117808095D01*
X143152857Y-117808095D01*
X143057619Y-117760476D01*
X143010000Y-117712857D01*
X142962380Y-117617619D01*
X142962380Y-117379523D01*
X143010000Y-117236666D01*
X143962380Y-116808095D02*
X142962380Y-116808095D01*
X142962380Y-116427142D01*
X143010000Y-116331904D01*
X143057619Y-116284285D01*
X143152857Y-116236666D01*
X143295714Y-116236666D01*
X143390952Y-116284285D01*
X143438571Y-116331904D01*
X143486190Y-116427142D01*
X143486190Y-116808095D01*
X143581428Y-115808095D02*
X143581428Y-115046190D01*
X143676666Y-114617619D02*
X143676666Y-114141428D01*
X143962380Y-114712857D02*
X142962380Y-114379523D01*
X143962380Y-114046190D01*
X143962380Y-113189047D02*
X143962380Y-113760476D01*
X143962380Y-113474761D02*
X142962380Y-113474761D01*
X143105238Y-113570000D01*
X143200476Y-113665238D01*
X143248095Y-113760476D01*
X142962380Y-112284285D02*
X142962380Y-112760476D01*
X143438571Y-112808095D01*
X143390952Y-112760476D01*
X143343333Y-112665238D01*
X143343333Y-112427142D01*
X143390952Y-112331904D01*
X143438571Y-112284285D01*
X143533809Y-112236666D01*
X143771904Y-112236666D01*
X143867142Y-112284285D01*
X143914761Y-112331904D01*
X143962380Y-112427142D01*
X143962380Y-112665238D01*
X143914761Y-112760476D01*
X143867142Y-112808095D01*
X143962380Y-111284285D02*
X143962380Y-111855714D01*
X143962380Y-111570000D02*
X142962380Y-111570000D01*
X143105238Y-111665238D01*
X143200476Y-111760476D01*
X143248095Y-111855714D01*
X154725714Y-96583333D02*
X155392380Y-96583333D01*
X154344761Y-96821428D02*
X155059047Y-97059523D01*
X155059047Y-96440476D01*
X154392380Y-96154761D02*
X154392380Y-95488095D01*
X155392380Y-95916666D01*
X154392380Y-94916666D02*
X154392380Y-94821428D01*
X154440000Y-94726190D01*
X154487619Y-94678571D01*
X154582857Y-94630952D01*
X154773333Y-94583333D01*
X155011428Y-94583333D01*
X155201904Y-94630952D01*
X155297142Y-94678571D01*
X155344761Y-94726190D01*
X155392380Y-94821428D01*
X155392380Y-94916666D01*
X155344761Y-95011904D01*
X155297142Y-95059523D01*
X155201904Y-95107142D01*
X155011428Y-95154761D01*
X154773333Y-95154761D01*
X154582857Y-95107142D01*
X154487619Y-95059523D01*
X154440000Y-95011904D01*
X154392380Y-94916666D01*
X155392380Y-94202380D02*
X155392380Y-93964285D01*
X155201904Y-93964285D01*
X155154285Y-94059523D01*
X155059047Y-94154761D01*
X154916190Y-94202380D01*
X154678095Y-94202380D01*
X154535238Y-94154761D01*
X154440000Y-94059523D01*
X154392380Y-93916666D01*
X154392380Y-93726190D01*
X154440000Y-93583333D01*
X154535238Y-93488095D01*
X154678095Y-93440476D01*
X154916190Y-93440476D01*
X155059047Y-93488095D01*
X155154285Y-93583333D01*
X155201904Y-93678571D01*
X155392380Y-93678571D01*
X155392380Y-93440476D01*
X149645714Y-96583333D02*
X150312380Y-96583333D01*
X149264761Y-96821428D02*
X149979047Y-97059523D01*
X149979047Y-96440476D01*
X149312380Y-96154761D02*
X149312380Y-95488095D01*
X150312380Y-95916666D01*
X149312380Y-94916666D02*
X149312380Y-94821428D01*
X149360000Y-94726190D01*
X149407619Y-94678571D01*
X149502857Y-94630952D01*
X149693333Y-94583333D01*
X149931428Y-94583333D01*
X150121904Y-94630952D01*
X150217142Y-94678571D01*
X150264761Y-94726190D01*
X150312380Y-94821428D01*
X150312380Y-94916666D01*
X150264761Y-95011904D01*
X150217142Y-95059523D01*
X150121904Y-95107142D01*
X149931428Y-95154761D01*
X149693333Y-95154761D01*
X149502857Y-95107142D01*
X149407619Y-95059523D01*
X149360000Y-95011904D01*
X149312380Y-94916666D01*
X150312380Y-94202380D02*
X150312380Y-93964285D01*
X150121904Y-93964285D01*
X150074285Y-94059523D01*
X149979047Y-94154761D01*
X149836190Y-94202380D01*
X149598095Y-94202380D01*
X149455238Y-94154761D01*
X149360000Y-94059523D01*
X149312380Y-93916666D01*
X149312380Y-93726190D01*
X149360000Y-93583333D01*
X149455238Y-93488095D01*
X149598095Y-93440476D01*
X149836190Y-93440476D01*
X149979047Y-93488095D01*
X150074285Y-93583333D01*
X150121904Y-93678571D01*
X150312380Y-93678571D01*
X150312380Y-93440476D01*
X144565714Y-96583333D02*
X145232380Y-96583333D01*
X144184761Y-96821428D02*
X144899047Y-97059523D01*
X144899047Y-96440476D01*
X144232380Y-96154761D02*
X144232380Y-95488095D01*
X145232380Y-95916666D01*
X144232380Y-94916666D02*
X144232380Y-94821428D01*
X144280000Y-94726190D01*
X144327619Y-94678571D01*
X144422857Y-94630952D01*
X144613333Y-94583333D01*
X144851428Y-94583333D01*
X145041904Y-94630952D01*
X145137142Y-94678571D01*
X145184761Y-94726190D01*
X145232380Y-94821428D01*
X145232380Y-94916666D01*
X145184761Y-95011904D01*
X145137142Y-95059523D01*
X145041904Y-95107142D01*
X144851428Y-95154761D01*
X144613333Y-95154761D01*
X144422857Y-95107142D01*
X144327619Y-95059523D01*
X144280000Y-95011904D01*
X144232380Y-94916666D01*
X145232380Y-94202380D02*
X145232380Y-93964285D01*
X145041904Y-93964285D01*
X144994285Y-94059523D01*
X144899047Y-94154761D01*
X144756190Y-94202380D01*
X144518095Y-94202380D01*
X144375238Y-94154761D01*
X144280000Y-94059523D01*
X144232380Y-93916666D01*
X144232380Y-93726190D01*
X144280000Y-93583333D01*
X144375238Y-93488095D01*
X144518095Y-93440476D01*
X144756190Y-93440476D01*
X144899047Y-93488095D01*
X144994285Y-93583333D01*
X145041904Y-93678571D01*
X145232380Y-93678571D01*
X145232380Y-93440476D01*
X139485714Y-96583333D02*
X140152380Y-96583333D01*
X139104761Y-96821428D02*
X139819047Y-97059523D01*
X139819047Y-96440476D01*
X139152380Y-96154761D02*
X139152380Y-95488095D01*
X140152380Y-95916666D01*
X139152380Y-94916666D02*
X139152380Y-94821428D01*
X139200000Y-94726190D01*
X139247619Y-94678571D01*
X139342857Y-94630952D01*
X139533333Y-94583333D01*
X139771428Y-94583333D01*
X139961904Y-94630952D01*
X140057142Y-94678571D01*
X140104761Y-94726190D01*
X140152380Y-94821428D01*
X140152380Y-94916666D01*
X140104761Y-95011904D01*
X140057142Y-95059523D01*
X139961904Y-95107142D01*
X139771428Y-95154761D01*
X139533333Y-95154761D01*
X139342857Y-95107142D01*
X139247619Y-95059523D01*
X139200000Y-95011904D01*
X139152380Y-94916666D01*
X140152380Y-94202380D02*
X140152380Y-93964285D01*
X139961904Y-93964285D01*
X139914285Y-94059523D01*
X139819047Y-94154761D01*
X139676190Y-94202380D01*
X139438095Y-94202380D01*
X139295238Y-94154761D01*
X139200000Y-94059523D01*
X139152380Y-93916666D01*
X139152380Y-93726190D01*
X139200000Y-93583333D01*
X139295238Y-93488095D01*
X139438095Y-93440476D01*
X139676190Y-93440476D01*
X139819047Y-93488095D01*
X139914285Y-93583333D01*
X139961904Y-93678571D01*
X140152380Y-93678571D01*
X140152380Y-93440476D01*
X134405714Y-96583333D02*
X135072380Y-96583333D01*
X134024761Y-96821428D02*
X134739047Y-97059523D01*
X134739047Y-96440476D01*
X134072380Y-96154761D02*
X134072380Y-95488095D01*
X135072380Y-95916666D01*
X134072380Y-94916666D02*
X134072380Y-94821428D01*
X134120000Y-94726190D01*
X134167619Y-94678571D01*
X134262857Y-94630952D01*
X134453333Y-94583333D01*
X134691428Y-94583333D01*
X134881904Y-94630952D01*
X134977142Y-94678571D01*
X135024761Y-94726190D01*
X135072380Y-94821428D01*
X135072380Y-94916666D01*
X135024761Y-95011904D01*
X134977142Y-95059523D01*
X134881904Y-95107142D01*
X134691428Y-95154761D01*
X134453333Y-95154761D01*
X134262857Y-95107142D01*
X134167619Y-95059523D01*
X134120000Y-95011904D01*
X134072380Y-94916666D01*
X135072380Y-94202380D02*
X135072380Y-93964285D01*
X134881904Y-93964285D01*
X134834285Y-94059523D01*
X134739047Y-94154761D01*
X134596190Y-94202380D01*
X134358095Y-94202380D01*
X134215238Y-94154761D01*
X134120000Y-94059523D01*
X134072380Y-93916666D01*
X134072380Y-93726190D01*
X134120000Y-93583333D01*
X134215238Y-93488095D01*
X134358095Y-93440476D01*
X134596190Y-93440476D01*
X134739047Y-93488095D01*
X134834285Y-93583333D01*
X134881904Y-93678571D01*
X135072380Y-93678571D01*
X135072380Y-93440476D01*
X129325714Y-96583333D02*
X129992380Y-96583333D01*
X128944761Y-96821428D02*
X129659047Y-97059523D01*
X129659047Y-96440476D01*
X128992380Y-96154761D02*
X128992380Y-95488095D01*
X129992380Y-95916666D01*
X128992380Y-94916666D02*
X128992380Y-94821428D01*
X129040000Y-94726190D01*
X129087619Y-94678571D01*
X129182857Y-94630952D01*
X129373333Y-94583333D01*
X129611428Y-94583333D01*
X129801904Y-94630952D01*
X129897142Y-94678571D01*
X129944761Y-94726190D01*
X129992380Y-94821428D01*
X129992380Y-94916666D01*
X129944761Y-95011904D01*
X129897142Y-95059523D01*
X129801904Y-95107142D01*
X129611428Y-95154761D01*
X129373333Y-95154761D01*
X129182857Y-95107142D01*
X129087619Y-95059523D01*
X129040000Y-95011904D01*
X128992380Y-94916666D01*
X129992380Y-94202380D02*
X129992380Y-93964285D01*
X129801904Y-93964285D01*
X129754285Y-94059523D01*
X129659047Y-94154761D01*
X129516190Y-94202380D01*
X129278095Y-94202380D01*
X129135238Y-94154761D01*
X129040000Y-94059523D01*
X128992380Y-93916666D01*
X128992380Y-93726190D01*
X129040000Y-93583333D01*
X129135238Y-93488095D01*
X129278095Y-93440476D01*
X129516190Y-93440476D01*
X129659047Y-93488095D01*
X129754285Y-93583333D01*
X129801904Y-93678571D01*
X129992380Y-93678571D01*
X129992380Y-93440476D01*
X164885714Y-96583333D02*
X165552380Y-96583333D01*
X164504761Y-96821428D02*
X165219047Y-97059523D01*
X165219047Y-96440476D01*
X164552380Y-96154761D02*
X164552380Y-95488095D01*
X165552380Y-95916666D01*
X164552380Y-94916666D02*
X164552380Y-94821428D01*
X164600000Y-94726190D01*
X164647619Y-94678571D01*
X164742857Y-94630952D01*
X164933333Y-94583333D01*
X165171428Y-94583333D01*
X165361904Y-94630952D01*
X165457142Y-94678571D01*
X165504761Y-94726190D01*
X165552380Y-94821428D01*
X165552380Y-94916666D01*
X165504761Y-95011904D01*
X165457142Y-95059523D01*
X165361904Y-95107142D01*
X165171428Y-95154761D01*
X164933333Y-95154761D01*
X164742857Y-95107142D01*
X164647619Y-95059523D01*
X164600000Y-95011904D01*
X164552380Y-94916666D01*
X165552380Y-94202380D02*
X165552380Y-93964285D01*
X165361904Y-93964285D01*
X165314285Y-94059523D01*
X165219047Y-94154761D01*
X165076190Y-94202380D01*
X164838095Y-94202380D01*
X164695238Y-94154761D01*
X164600000Y-94059523D01*
X164552380Y-93916666D01*
X164552380Y-93726190D01*
X164600000Y-93583333D01*
X164695238Y-93488095D01*
X164838095Y-93440476D01*
X165076190Y-93440476D01*
X165219047Y-93488095D01*
X165314285Y-93583333D01*
X165361904Y-93678571D01*
X165552380Y-93678571D01*
X165552380Y-93440476D01*
X132611904Y-112720380D02*
X132611904Y-111720380D01*
X132850000Y-111720380D01*
X132992857Y-111768000D01*
X133088095Y-111863238D01*
X133135714Y-111958476D01*
X133183333Y-112148952D01*
X133183333Y-112291809D01*
X133135714Y-112482285D01*
X133088095Y-112577523D01*
X132992857Y-112672761D01*
X132850000Y-112720380D01*
X132611904Y-112720380D01*
X133564285Y-111815619D02*
X133611904Y-111768000D01*
X133707142Y-111720380D01*
X133945238Y-111720380D01*
X134040476Y-111768000D01*
X134088095Y-111815619D01*
X134135714Y-111910857D01*
X134135714Y-112006095D01*
X134088095Y-112148952D01*
X133516666Y-112720380D01*
X134135714Y-112720380D01*
X132611904Y-121610380D02*
X132611904Y-120610380D01*
X132850000Y-120610380D01*
X132992857Y-120658000D01*
X133088095Y-120753238D01*
X133135714Y-120848476D01*
X133183333Y-121038952D01*
X133183333Y-121181809D01*
X133135714Y-121372285D01*
X133088095Y-121467523D01*
X132992857Y-121562761D01*
X132850000Y-121610380D01*
X132611904Y-121610380D01*
X134135714Y-121610380D02*
X133564285Y-121610380D01*
X133850000Y-121610380D02*
X133850000Y-120610380D01*
X133754761Y-120753238D01*
X133659523Y-120848476D01*
X133564285Y-120896095D01*
M02*
